<svg viewBox="0 0 85 37" fill="none" xmlns="http://www.w3.org/2000/svg">
<g clip-path="url(#clip0_488_11561)">
<path d="M41.4505 15.0371C41.486 14.687 41.4457 14.3334 41.3323 14.0005C41.2189 13.6677 41.0352 13.3635 40.7937 13.109C40.5523 12.8545 40.2588 12.6556 39.9337 12.5262C39.6085 12.3967 39.2593 12.3398 38.9101 12.3592H36.9746V17.6541H38.9101C39.2537 17.6725 39.5973 17.6168 39.9178 17.491C40.2384 17.3651 40.5285 17.1718 40.769 16.9241C41.0094 16.6765 41.1946 16.38 41.3121 16.0546C41.4296 15.7292 41.4768 15.3823 41.4505 15.0371ZM38.1843 16.6804V13.3938H38.8497C39.6964 13.3938 40.2408 13.9416 40.2408 15.0371C40.2408 16.1326 39.6964 16.6804 38.8497 16.6804H38.1843Z" fill="white"/>
<path d="M46.4104 16.7412H43.991V15.4631H46.0475V14.4893H43.991V13.3329H46.3499V12.3591H42.7812V17.6541H46.4104V16.7412Z" fill="white"/>
<path d="M50.0395 17.7758C50.3411 17.8073 50.6458 17.7707 50.9316 17.6687C51.2174 17.5667 51.4769 17.4018 51.6913 17.1861C51.9057 16.9703 52.0696 16.7092 52.171 16.4216C52.2724 16.1341 52.3087 15.8274 52.2774 15.5239V12.3591H51.0677V15.5239C51.0677 16.3151 50.7048 16.7412 49.979 16.7412C49.2531 16.7412 48.8902 16.3151 48.8902 15.5239V12.3591H47.6805V15.5239C47.6774 15.831 47.7373 16.1353 47.8563 16.418C47.9754 16.7007 48.1511 16.9557 48.3724 17.167C48.5938 17.3783 48.8561 17.5415 49.1429 17.6462C49.4297 17.751 49.7349 17.7951 50.0395 17.7758Z" fill="white"/>
<path d="M56.209 17.6541V13.3938H57.7816V12.3591H53.5476V13.3938H55.0597V17.6541H56.209Z" fill="white"/>
<path d="M60.8663 16.802C60.6225 16.804 60.3816 16.7503 60.1615 16.6448C59.9415 16.5394 59.7481 16.3851 59.5961 16.1934L58.7493 16.802C59.0241 17.1089 59.36 17.3542 59.7351 17.5219C60.1102 17.6897 60.5162 17.7762 60.9267 17.7758C62.1364 17.7758 62.8623 17.1672 62.8623 16.1934C62.8623 15.2196 62.3179 14.8545 61.1687 14.5502C60.3824 14.3067 60.1404 14.1241 60.1404 13.759C60.1404 13.3938 60.3824 13.2721 60.8663 13.2721C61.0621 13.2754 61.255 13.3206 61.4323 13.4045C61.6095 13.4884 61.7671 13.6093 61.8945 13.759L62.6808 13.1503C62.4389 12.8756 62.1404 12.6571 61.8062 12.51C61.472 12.3629 61.11 12.2906 60.7453 12.2983C59.5961 12.2983 58.9307 12.9069 58.9307 13.8198C58.9307 14.611 59.4146 15.1588 60.5033 15.4631C61.4711 15.7674 61.6526 15.95 61.6526 16.3152C61.6526 16.6803 61.3501 16.802 60.8663 16.802Z" fill="white"/>
<path d="M68.7898 16.5586L67.822 16.0717C67.7087 16.2953 67.5352 16.4823 67.3213 16.6115C67.1074 16.7406 66.8617 16.8066 66.6123 16.802C65.826 16.802 65.2212 16.1934 65.2212 15.0979C65.2212 14.0024 65.826 13.3938 66.6123 13.3938C66.8617 13.3892 67.1074 13.4552 67.3213 13.5844C67.5352 13.7135 67.7087 13.9005 67.822 14.1241L68.7898 13.6372C68.5659 13.2452 68.2379 12.9237 67.8427 12.7087C67.4474 12.4938 67.0004 12.3938 66.5519 12.42C65.0397 12.42 64.0115 13.5155 64.0115 15.1588C64.0115 16.802 65.0397 17.8975 66.5519 17.8975C67.0045 17.8724 67.4444 17.7375 67.8341 17.5043C68.2238 17.2712 68.5516 16.9467 68.7898 16.5586Z" fill="white"/>
<path d="M73.2055 14.4284H71.2095V12.3591H69.9998V17.6541H71.2095V15.4022H73.2055V17.6541H74.4152V12.3591H73.2055V14.4284Z" fill="white"/>
<path d="M79.6772 16.7412H77.2578V15.4631H79.3143V14.4893H77.2578V13.3329H79.6167V12.3591H76.0481V17.6541H79.6772V16.7412Z" fill="white"/>
<path d="M83.3064 14.5502C82.5201 14.3067 82.2781 14.1241 82.2781 13.759C82.2781 13.3938 82.5201 13.2721 83.0039 13.2721C83.1998 13.2754 83.3927 13.3206 83.57 13.4045C83.7472 13.4884 83.9048 13.6093 84.0322 13.759L84.8185 13.1503C84.5766 12.8756 84.2781 12.6571 83.9439 12.51C83.6097 12.3629 83.2477 12.2906 82.883 12.2983C81.7338 12.2983 81.0684 12.9069 81.0684 13.8198C81.0684 14.611 81.5523 15.1588 82.641 15.4631C83.6088 15.7674 83.7903 15.95 83.7903 16.3152C83.7903 16.6803 83.4878 16.8629 83.0039 16.8629C82.7602 16.8649 82.5193 16.8111 82.2992 16.7057C82.0792 16.6003 81.8858 16.4459 81.7338 16.2543L80.887 16.8629C81.1618 17.1698 81.4976 17.415 81.8728 17.5828C82.2479 17.7506 82.6539 17.8371 83.0644 17.8367C84.2741 17.8367 85 17.2281 85 16.2543C85 15.2805 84.4556 14.8545 83.3064 14.5502Z" fill="white"/>
<path d="M38.1843 22.2188H38.9101L40.0594 24.2272H41.3296L39.9989 22.0362C40.3022 21.9341 40.5654 21.7376 40.7502 21.4749C40.9351 21.2123 41.0321 20.8973 41.0271 20.5755C41.0271 19.48 40.2408 18.9323 38.9101 18.9323H36.9746V24.2272H38.1843V22.2188ZM38.1843 19.8452H38.9101C39.515 19.8452 39.8174 20.0886 39.8174 20.5755C39.8174 21.0624 39.515 21.3059 38.9101 21.3059H38.1843V19.8452Z" fill="white"/>
<path d="M47.1966 21.6101C47.1966 20.0277 46.2893 18.8713 44.7167 18.8713C43.1441 18.8713 42.2368 20.0277 42.2368 21.6101C42.2368 23.1925 43.1441 24.3489 44.7167 24.3489C46.2893 24.3489 47.1966 23.1317 47.1966 21.6101ZM43.4465 21.6101C43.4465 20.5146 43.9304 19.906 44.7167 19.906C45.503 19.906 45.9869 20.5755 45.9869 21.6101C45.9869 22.6448 45.503 23.3142 44.7167 23.3142C43.9304 23.3142 43.4465 22.6448 43.4465 21.6101Z" fill="white"/>
<path d="M51.4305 21.9753L49.8579 18.9323H48.6482V24.2272H49.7974V20.9407L51.0676 23.2534H51.7934L53.0636 20.9407V24.2272H54.2128V18.9323H53.0031L51.4305 21.9753Z" fill="white"/>
<path d="M58.7493 18.9323H57.2372L55.4226 24.2272H56.6928L57.0557 23.1317H58.9912L59.3542 24.2272H60.6243L58.7493 18.9323ZM57.3581 22.2188L58.0235 20.0886L58.6888 22.2188H57.3581Z" fill="white"/>
<path d="M65.0399 22.3405L62.9834 18.9323H61.8342V24.2272H62.9834V20.819L65.0399 24.2272H66.1892V18.9323H65.0399V22.3405Z" fill="white"/>
<path d="M70.1811 24.2272V19.906H71.6932V18.9323H67.4592V19.906H68.9714V24.2272H70.1811Z" fill="white"/>
<path d="M74.1125 18.9323H72.9028V24.2272H74.1125V18.9323Z" fill="white"/>
<path d="M80.0401 18.9323H78.7094L77.0159 21.3059V18.9323H75.8062V24.2272H77.0159V22.9491L77.6812 22.0971L78.8909 24.2272H80.2821L78.407 21.1233L80.0401 18.9323Z" fill="white"/>
<path d="M39.7569 28.5483L38.1843 25.5052H36.9746V30.8002H38.1238V27.4528L39.394 29.8264H40.1198L41.3295 27.4528V30.8002H42.4788V25.5052H41.3295L39.7569 28.5483Z" fill="white"/>
<path d="M47.499 28.6701C47.499 29.4613 47.1361 29.8873 46.4103 29.8873C45.6844 29.8873 45.3215 29.4613 45.3215 28.6701V25.5052H44.1118V28.6701C44.086 28.9723 44.1262 29.2766 44.2296 29.5616C44.3329 29.8466 44.4969 30.1054 44.7101 30.3199C44.9233 30.5344 45.1805 30.6995 45.4638 30.8035C45.747 30.9075 46.0494 30.9479 46.3498 30.9219C46.6514 30.9535 46.9562 30.9169 47.2419 30.8148C47.5277 30.7128 47.7872 30.5479 48.0016 30.3322C48.216 30.1164 48.3799 29.8553 48.4813 29.5677C48.5827 29.2802 48.6191 28.9735 48.5877 28.6701V25.5052H47.378V28.6701H47.499Z" fill="white"/>
<path d="M52.3379 27.6355C51.5516 27.392 51.3096 27.2095 51.3096 26.8443C51.3096 26.4791 51.5516 26.3574 52.0354 26.3574C52.2313 26.3608 52.4242 26.4059 52.6015 26.4898C52.7787 26.5738 52.9363 26.6946 53.0637 26.8443L53.85 26.2357C53.6081 25.961 53.3096 25.7425 52.9754 25.5953C52.6412 25.4482 52.2792 25.376 51.9145 25.3836C50.7653 25.3836 50.0999 25.9922 50.0999 26.9051C50.0999 27.6964 50.5838 28.2441 51.6725 28.5484C52.6403 28.8527 52.8218 29.0353 52.8218 29.4005C52.8218 29.7656 52.5193 29.9482 52.0354 29.9482C51.7917 29.9502 51.5508 29.8965 51.3307 29.791C51.1107 29.6856 50.9173 29.5312 50.7653 29.3396L49.9185 29.9482C50.1933 30.2551 50.5291 30.5004 50.9043 30.6681C51.2794 30.8359 51.6854 30.9224 52.0959 30.922C53.3056 30.922 54.0315 30.3134 54.0315 29.3396C54.0315 28.3658 53.4871 27.9398 52.3379 27.6355Z" fill="white"/>
<path d="M56.6323 28.5483H58.6888V27.5745H56.6323V26.4182H58.9308V25.5052H55.4226V30.8002H58.9912V29.8264H56.6323V28.5483Z" fill="white"/>
<path d="M63.7092 28.6701C63.7092 29.4613 63.3463 29.8873 62.6205 29.8873C61.8947 29.8873 61.5317 29.4613 61.5317 28.6701V25.5052H60.322V28.6701C60.2962 28.9723 60.3364 29.2766 60.4398 29.5616C60.5431 29.8466 60.7071 30.1054 60.9203 30.3199C61.1335 30.5344 61.3907 30.6995 61.674 30.8035C61.9572 30.9075 62.2596 30.9479 62.56 30.9219C62.8616 30.9535 63.1664 30.9169 63.4521 30.8148C63.7379 30.7128 63.9974 30.5479 64.2118 30.3322C64.4262 30.1164 64.5901 29.8553 64.6915 29.5677C64.7929 29.2802 64.8293 28.9735 64.798 28.6701V25.5052H63.5882V28.6701H63.7092Z" fill="white"/>
<path d="M69.3344 28.5483L67.7618 25.5052H66.6125V30.8002H67.7618V27.4528L68.9715 29.8264H69.6973L70.9675 27.4528V30.8002H72.1167V25.5052H70.907L69.3344 28.5483Z" fill="white"/>
<path d="M30.5028 30.4351C30.4042 30.4178 30.3028 30.4254 30.2078 30.4573C30.1128 30.4892 30.0271 30.5443 29.9585 30.6177C27.2971 32.0175 24.5148 28.9744 22.8817 27.2094C21.672 25.8705 20.5228 24.5315 19.3131 23.2534L18.8897 22.8274L18.9501 22.7665C21.4905 21.1841 24.3938 18.9322 24.5753 15.6457C24.6962 13.5155 23.4261 11.5071 22.0349 10.0464C20.7274 8.7832 19.1861 7.79063 17.4985 7.12504C13.6879 5.60349 9.27249 5.1166 5.40143 6.51642C2.74008 7.49021 -0.889039 10.229 0.199697 13.5155C0.986006 15.95 3.76833 17.2889 6.12726 17.5933C8.48618 17.8976 11.3895 17.0455 11.7524 14.3067C11.8796 13.477 11.7531 12.6279 11.3895 11.8723C11.329 11.6897 10.5427 11.9331 10.6032 12.1157C10.9029 12.7381 11.0432 13.426 11.0116 14.1169C10.9799 14.8078 10.7771 15.4797 10.4217 16.0717C10.1334 16.4618 9.75978 16.7799 9.32977 17.0015C8.89977 17.2231 8.42488 17.3423 7.94182 17.3498C6.73855 17.3971 5.54126 17.157 4.44791 16.6493C3.35457 16.1415 2.39624 15.3805 1.65134 14.4284C1.31755 13.9704 1.09454 13.4404 1.00004 12.8804C0.905542 12.3204 0.942157 11.746 1.10698 11.2028C1.67655 9.64292 2.76695 8.3306 4.19173 7.49021C7.45793 5.48177 11.7524 5.84694 15.2605 6.94245C18.7687 8.03796 22.4583 10.3507 23.547 14.1241C24.5148 17.4715 22.0954 20.2103 19.555 21.9753C19.2669 22.1991 18.9638 22.4024 18.6477 22.5839L18.5872 22.5231V12.3591H13.9903V19.7234C12.7333 19.4441 11.4207 19.5719 10.2403 20.0886C8.97007 20.6363 7.45793 22.097 8.30473 23.6186C8.85386 24.3867 9.67788 24.9104 10.6032 25.0793C11.706 25.3939 12.868 25.4356 13.9903 25.201V30.8003H18.5872V23.4968C19.7365 24.6532 20.7647 25.9313 21.8534 27.1485C23.547 29.0353 25.785 31.5915 28.6278 31.2871C29.3046 31.2055 29.9607 30.9992 30.5633 30.6785C30.6843 30.4959 30.6238 30.4351 30.5028 30.4351ZM13.9903 24.8967C13.7317 24.9496 13.4676 24.97 13.204 24.9575C11.9913 24.9952 10.7937 24.678 9.75638 24.0446C9.45812 23.8482 9.21699 23.5758 9.0576 23.255C8.8982 22.9342 8.82625 22.5766 8.8491 22.2187C8.91152 21.8458 9.05156 21.4904 9.26003 21.1757C9.46851 20.8611 9.74071 20.5943 10.0588 20.3929C11.208 19.6017 12.6597 19.7234 13.9299 20.2103V24.8967H13.9903Z" fill="white"/>
</g>
<defs>
<clipPath id="clip0_488_11561">
<rect width="85" height="37" fill="white"/>
</clipPath>
</defs>
</svg>
