<svg xmlns="http://www.w3.org/2000/svg" width="319" height="138" viewBox="0 0 140.53 42.1"><path d="M68.5,23.7a4,4,0,0,0-4.2-4.4H61.1V28h3.2A4,4,0,0,0,68.5,23.7Zm-5.4,2.7V21h1.1c1.4,0,2.3.9,2.3,2.7s-.9,2.7-2.3,2.7Z" transform="translate(0.03 -8.34)"/><polygon points="76.73 18.16 72.73 18.16 72.73 16.06 76.13 16.06 76.13 14.46 72.73 14.46 72.73 12.56 76.63 12.56 76.63 10.96 70.73 10.96 70.73 19.66 76.73 19.66 76.73 18.16"/><path d="M82.7,28.2a3.37,3.37,0,0,0,3.7-3.7V19.3h-2v5.2c0,1.3-.6,2-1.8,2s-1.8-.7-1.8-2V19.3h-2v5.2A3.67,3.67,0,0,0,82.7,28.2Z" transform="translate(0.03 -8.34)"/><polygon points="92.93 19.66 92.93 12.66 95.53 12.66 95.53 10.96 88.53 10.96 88.53 12.66 91.03 12.66 91.03 19.66 92.93 19.66"/><path d="M100.6,26.6a2.66,2.66,0,0,1-2.1-1l-1.4,1a4.84,4.84,0,0,0,3.6,1.6c2,0,3.2-1,3.2-2.6s-.9-2.2-2.8-2.7c-1.3-.4-1.7-.7-1.7-1.3s.4-.8,1.2-.8a2.29,2.29,0,0,1,1.7.8l1.3-1a4.16,4.16,0,0,0-3.2-1.4c-1.9,0-3,1-3,2.5,0,1.3.8,2.2,2.6,2.7,1.6.5,1.9.8,1.9,1.4S101.4,26.6,100.6,26.6Z" transform="translate(0.03 -8.34)"/><path d="M113.7,26.2l-1.6-.8a2.2,2.2,0,0,1-2,1.2c-1.3,0-2.3-1-2.3-2.8s1-2.8,2.3-2.8a2.2,2.2,0,0,1,2,1.2l1.6-.8a4,4,0,0,0-3.7-2c-2.5,0-4.2,1.8-4.2,4.5s1.7,4.5,4.2,4.5A4.65,4.65,0,0,0,113.7,26.2Z" transform="translate(0.03 -8.34)"/><polygon points="121.03 14.36 117.73 14.36 117.73 10.96 115.73 10.96 115.73 19.66 117.73 19.66 117.73 15.96 121.03 15.96 121.03 19.66 123.03 19.66 123.03 10.96 121.03 10.96 121.03 14.36"/><polygon points="131.73 18.16 127.73 18.16 127.73 16.06 131.13 16.06 131.13 14.46 127.73 14.46 127.73 12.56 131.63 12.56 131.63 10.96 125.73 10.96 125.73 19.66 131.73 19.66 131.73 18.16"/><path d="M137.7,22.9c-1.3-.4-1.7-.7-1.7-1.3s.4-.8,1.2-.8a2.29,2.29,0,0,1,1.7.8l1.3-1a4.16,4.16,0,0,0-3.2-1.4c-1.9,0-3,1-3,2.5,0,1.3.8,2.2,2.6,2.7,1.6.5,1.9.8,1.9,1.4s-.5.9-1.3.9a2.66,2.66,0,0,1-2.1-1l-1.4,1a4.84,4.84,0,0,0,3.6,1.6c2,0,3.2-1,3.2-2.6S139.6,23.4,137.7,22.9Z" transform="translate(0.03 -8.34)"/><path d="M63.1,35.5h1.2l1.9,3.3h2.1l-2.2-3.6a2.49,2.49,0,0,0,1.7-2.4c0-1.8-1.3-2.7-3.5-2.7H61.1v8.7h2Zm0-3.9h1.2q1.5,0,1.5,1.2T64.3,34H63.1Z" transform="translate(0.03 -8.34)"/><path d="M78,34.5c0-2.6-1.5-4.5-4.1-4.5s-4.1,1.9-4.1,4.5S71.3,39,73.9,39,78,37,78,34.5Zm-6.2,0c0-1.8.8-2.8,2.1-2.8S76,32.8,76,34.5s-.8,2.8-2.1,2.8S71.8,36.2,71.8,34.5Z" transform="translate(0.03 -8.34)"/><polygon points="85.03 26.76 82.43 21.76 80.43 21.76 80.43 30.46 82.33 30.46 82.33 25.06 84.43 28.86 85.63 28.86 87.73 25.06 87.73 30.46 89.63 30.46 89.63 21.76 87.63 21.76 85.03 26.76"/><path d="M97.1,30.1H94.6l-3,8.7h2.1l.6-1.8h3.2l.6,1.8h2.1Zm-2.3,5.4L95.9,32,97,35.5Z" transform="translate(0.03 -8.34)"/><polygon points="107.53 27.36 104.13 21.76 102.23 21.76 102.23 30.46 104.13 30.46 104.13 24.86 107.53 30.46 109.43 30.46 109.43 21.76 107.53 21.76 107.53 27.36"/><polygon points="116.03 30.46 116.03 23.36 118.53 23.36 118.53 21.76 111.53 21.76 111.53 23.36 114.03 23.36 114.03 30.46 116.03 30.46"/><rect x="120.53" y="21.76" width="2" height="8.7"/><polygon points="132.33 21.76 130.13 21.76 127.33 25.66 127.33 21.76 125.33 21.76 125.33 30.46 127.33 30.46 127.33 28.36 128.43 26.96 130.43 30.46 132.73 30.46 129.63 25.36 132.33 21.76"/><polygon points="65.73 37.56 63.13 32.56 61.13 32.56 61.13 41.26 63.03 41.26 63.03 35.76 65.13 39.66 66.33 39.66 68.33 35.76 68.33 41.26 70.23 41.26 70.23 32.56 68.33 32.56 65.73 37.56"/><path d="M78.5,46.1c0,1.3-.6,2-1.8,2s-1.8-.7-1.8-2V40.9h-2v5.2a3.42,3.42,0,0,0,3.7,3.7,3.37,3.37,0,0,0,3.7-3.7V40.9h-2v5.2Z" transform="translate(0.03 -8.34)"/><path d="M86.5,44.4c-1.3-.4-1.7-.7-1.7-1.3s.4-.8,1.2-.8a2.29,2.29,0,0,1,1.7.8l1.3-1a4.16,4.16,0,0,0-3.2-1.4c-1.9,0-3,1-3,2.5,0,1.3.8,2.2,2.6,2.7,1.6.5,1.9.8,1.9,1.4s-.5.9-1.3.9a2.66,2.66,0,0,1-2.1-1l-1.4,1a4.84,4.84,0,0,0,3.6,1.6c2,0,3.2-1,3.2-2.6S88.4,44.9,86.5,44.4Z" transform="translate(0.03 -8.34)"/><polygon points="93.63 37.56 97.03 37.56 97.03 35.96 93.63 35.96 93.63 34.06 97.43 34.06 97.43 32.56 91.63 32.56 91.63 41.26 97.53 41.26 97.53 39.66 93.63 39.66 93.63 37.56"/><path d="M105.3,46.1c0,1.3-.6,2-1.8,2s-1.8-.7-1.8-2V40.9h-2v5.2a3.42,3.42,0,0,0,3.7,3.7,3.37,3.37,0,0,0,3.7-3.7V40.9h-2v5.2Z" transform="translate(0.03 -8.34)"/><polygon points="114.63 37.56 112.03 32.56 110.13 32.56 110.13 41.26 112.03 41.26 112.03 35.76 114.03 39.66 115.23 39.66 117.33 35.76 117.33 41.26 119.23 41.26 119.23 32.56 117.23 32.56 114.63 37.56"/><path d="M50.4,49a1,1,0,0,0-.9.3c-4.4,2.3-9-2.7-11.7-5.6-2-2.2-3.9-4.4-5.9-6.5l-.7-.7.1-.1c4.2-2.6,9-6.3,9.3-11.7.2-3.5-1.9-6.8-4.2-9.2a22.89,22.89,0,0,0-7.5-4.8c-6.3-2.5-13.6-3.3-20-1C4.5,11.3-1.5,15.8.3,21.2c1.3,4,5.9,6.2,9.8,6.7s8.7-.9,9.3-5.4a6.8,6.8,0,0,0-.6-4c-.1-.3-1.4.1-1.3.4a6.82,6.82,0,0,1-.3,6.5,5.21,5.21,0,0,1-4.1,2.1A12.61,12.61,0,0,1,2.7,22.7a6,6,0,0,1-.9-5.3,11.78,11.78,0,0,1,5.1-6.1c5.4-3.3,12.5-2.7,18.3-.9S37.1,16,38.9,22.2c1.6,5.5-2.4,10-6.6,12.9a13,13,0,0,1-1.5,1l-.1-.1V19.3H23.1V31.4a10.09,10.09,0,0,0-6.2.6c-2.1.9-4.6,3.3-3.2,5.8a6,6,0,0,0,3.8,2.4,11.76,11.76,0,0,0,5.6.2v9.2h7.6v-12c1.9,1.9,3.6,4,5.4,6,2.8,3.1,6.5,7.3,11.2,6.8a9.18,9.18,0,0,0,3.2-1C50.7,49.1,50.6,49,50.4,49ZM23.1,39.9a5.28,5.28,0,0,1-1.3.1,10.37,10.37,0,0,1-5.7-1.5,3.33,3.33,0,0,1-1.5-3,4.41,4.41,0,0,1,2-3c1.9-1.3,4.3-1.1,6.4-.3v7.7Z" transform="translate(0.03 -8.34)"/></svg>