<?xml version="1.0" encoding="UTF-8" standalone="no"?>
<!DOCTYPE svg PUBLIC "-//W3C//DTD SVG 1.1//EN" "http://www.w3.org/Graphics/SVG/1.1/DTD/svg11.dtd">
<svg width="100%" height="100%" viewBox="0 0 300 300" version="1.1" xmlns="http://www.w3.org/2000/svg" xmlns:xlink="http://www.w3.org/1999/xlink" xml:space="preserve" xmlns:serif="http://www.serif.com/" style="fill-rule:evenodd;clip-rule:evenodd;stroke-linejoin:round;stroke-miterlimit:1.41421;">
    <g id="Layer-1" transform="matrix(3.71833,0,0,3.74995,11.1847,1022.25)">
        <g transform="matrix(1,0,0,1,-7.05934,-281.681)">
            <path d="M65.439,51.951C63.28,51.951 61.426,51.233 60.079,49.874C58.727,48.512 58.013,46.635 58.013,44.446C58.013,40.036 61.075,36.956 65.46,36.956C67.577,36.956 69.484,37.75 70.831,39.19C72.116,40.564 72.823,42.422 72.823,44.424C72.823,48.926 69.855,51.951 65.439,51.951M51.329,51.944C49.892,51.944 48.355,51.745 46.84,50.302L46.665,50.133L48.34,48.174L48.538,48.347C49.331,49.043 50.31,49.444 51.227,49.444C52.272,49.444 53.331,48.849 53.331,47.712C53.331,46.344 52.281,45.883 50.952,45.299L50.855,45.255C49.168,44.53 47.258,43.709 47.258,40.812C47.258,38.945 48.965,36.931 51.721,36.931C53.143,36.931 54.269,37.117 55.815,38.066L56.036,38.202L54.702,40.347L54.48,40.199C53.71,39.684 52.835,39.434 51.805,39.434C51.499,39.434 49.97,39.505 49.97,40.917C49.97,42.031 50.929,42.45 52.143,42.982C52.265,43.035 52.389,43.09 52.513,43.145C54.122,43.864 56.122,44.761 56.122,47.627C56.122,50.294 53.633,51.944 51.329,51.944M44.932,39.573L38.799,39.573L38.799,43.055L44.475,43.055L44.475,45.516L38.799,45.516L38.799,49.332L44.932,49.332L44.932,51.838L36.047,51.838L36.047,37.067L44.932,37.067L44.932,39.573ZM30.673,51.838L29.852,41.691L26.121,48.756L23.655,48.756L20.437,42.189L19.654,51.838L16.906,51.838L18.103,37.069L20.751,37.069L25.116,45.796L29.577,37.069L32.225,37.069L33.421,51.838L30.673,51.838ZM17.14,9.078L4.392,74.975L75.469,89.079L84.392,9.078L17.14,9.078Z" style="fill-rule:nonzero;"/>
        </g>
        <g transform="matrix(1,0,0,1,-7.05934,-281.681)">
            <path d="M65.438,39.322C62.368,39.322 60.67,41.645 60.67,44.454C60.67,47.056 62.327,49.585 65.375,49.585C68.407,49.585 70.161,47.281 70.161,44.454C70.161,41.645 68.528,39.322 65.438,39.322" style="fill-rule:nonzero;"/>
        </g>
    </g>
</svg>
