<svg viewBox="0 0 200 200" fill="none" xmlns="http://www.w3.org/2000/svg">
<g clip-path="url(#clip0_747_14190)">
<g filter="url(#filter0_d_747_14190)">
<ellipse cx="102.61" cy="84.7516" rx="116.384" ry="220.743" fill="url(#paint0_radial_747_14190)" shape-rendering="crispEdges"/>
</g>
</g>
<path d="M88.2714 191.254L88.2713 194.141H10C19.3702 188.244 22.0552 176.127 24.3514 172.702C26.6476 169.277 25.3081 162.712 24.3514 159.857C25.3081 140.353 27.5086 100.202 28.6567 95.6351C29.8048 91.0682 34.8756 83.2664 37.2675 79.9364C41.0945 60.4318 49.0355 19.71 50.1836 12.8596C51.3317 6.00925 60.5257 7.15097 62.4392 8.57813L62.8276 15.7139L62.4392 159.857L108.81 163.602L88.2714 191.254Z" fill="#D9946B"/>
<path d="M88.2714 191.254L88.2713 194.141H10C19.3702 188.244 22.0552 176.127 24.3514 172.702C26.6476 169.277 25.3081 162.712 24.3514 159.857C25.3081 140.353 27.5086 100.202 28.6567 95.6351C29.8048 91.0682 34.8756 83.2664 37.2675 79.9364C41.0945 60.4318 49.0355 19.71 50.1836 12.8596C51.3317 6.00925 60.5257 7.15097 62.4392 8.57813L62.8276 15.7139L62.4392 159.857L108.81 163.602L88.2714 191.254Z" fill="url(#paint1_linear_747_14190)"/>
<path d="M151.903 72.1648C145.469 67.8895 147.346 25.7894 151.056 18.3929C154.767 10.9964 160.655 6.91444 164.208 9.27562C167.761 11.6368 167.112 17.4384 165.951 27.3883C165.033 35.2533 159.478 77.1987 151.903 72.1648Z" fill="#D9946B"/>
<rect x="61.6567" y="7.7358" width="87.9648" height="153.28" rx="4.55966" stroke="#0A1132" stroke-width="5.47159"/>
<path d="M162.27 68.4265C165.517 73.3603 162.818 75.7139 159.487 78.6173C156.157 81.5206 152.004 81.6653 150.211 78.9405C148.417 76.2157 149.663 71.6531 152.993 68.7498C156.324 65.8464 158.447 62.6173 162.27 68.4265Z" fill="#D9946B"/>
<path d="M166.594 56.0118C168.547 62.8611 164.49 65.023 159.485 67.6899C154.481 70.3567 149.549 69.4521 148.471 65.6694C147.392 61.8866 150.575 56.6582 155.579 53.9913C160.584 51.3245 164.294 47.9472 166.594 56.0118Z" fill="#D9946B"/>
<path d="M169.2 40.6345C169.2 49.777 163.62 49.7718 159.467 54.7521C153.818 57.7627 150.302 57.0129 148.741 51.5368C147.179 46.0607 150.493 39.1809 156.143 36.1704C161.793 33.1598 169.2 27.9158 169.2 40.6345Z" fill="#D9946B"/>
<circle cx="105.052" cy="86.8004" r="31.5116" fill="#FF7A00"/>
<path d="M79.3959 85.3148V78.3148H82.2059C82.9326 78.3148 83.4859 78.4848 83.8659 78.8248C84.2526 79.1581 84.4459 79.5881 84.4459 80.1148C84.4459 80.5548 84.3259 80.9081 84.0859 81.1748C83.8526 81.4348 83.5659 81.6114 83.2259 81.7048C83.6259 81.7848 83.9559 81.9848 84.2159 82.3048C84.4759 82.6181 84.6059 82.9848 84.6059 83.4048C84.6059 83.9581 84.4059 84.4148 84.0059 84.7748C83.6059 85.1348 83.0392 85.3148 82.3059 85.3148H79.3959ZM80.6759 81.2548H82.0159C82.3759 81.2548 82.6526 81.1714 82.8459 81.0048C83.0392 80.8381 83.1359 80.6014 83.1359 80.2948C83.1359 80.0014 83.0392 79.7714 82.8459 79.6048C82.6592 79.4314 82.3759 79.3448 81.9959 79.3448H80.6759V81.2548ZM80.6759 84.2748H82.1059C82.4859 84.2748 82.7792 84.1881 82.9859 84.0148C83.1992 83.8348 83.3059 83.5848 83.3059 83.2648C83.3059 82.9381 83.1959 82.6814 82.9759 82.4948C82.7559 82.3081 82.4592 82.2148 82.0859 82.2148H80.6759V84.2748ZM85.6745 85.3148V78.1148H86.9545V85.3148H85.6745ZM88.9524 79.5848C88.719 79.5848 88.5257 79.5148 88.3724 79.3748C88.2257 79.2348 88.1524 79.0581 88.1524 78.8448C88.1524 78.6314 88.2257 78.4581 88.3724 78.3248C88.5257 78.1848 88.719 78.1148 88.9524 78.1148C89.1857 78.1148 89.3757 78.1848 89.5224 78.3248C89.6757 78.4581 89.7524 78.6314 89.7524 78.8448C89.7524 79.0581 89.6757 79.2348 89.5224 79.3748C89.3757 79.5148 89.1857 79.5848 88.9524 79.5848ZM88.3124 85.3148V80.3548H89.5924V85.3148H88.3124ZM93.3584 85.4348C92.8517 85.4348 92.4051 85.3248 92.0184 85.1048C91.6317 84.8848 91.3251 84.5781 91.0984 84.1848C90.8784 83.7914 90.7684 83.3414 90.7684 82.8348C90.7684 82.3281 90.8784 81.8781 91.0984 81.4848C91.3251 81.0914 91.6317 80.7848 92.0184 80.5648C92.4051 80.3448 92.8517 80.2348 93.3584 80.2348C93.9917 80.2348 94.5251 80.4014 94.9584 80.7348C95.3917 81.0614 95.6684 81.5148 95.7884 82.0948H94.4384C94.3717 81.8548 94.2384 81.6681 94.0384 81.5348C93.8451 81.3948 93.6151 81.3248 93.3484 81.3248C92.9951 81.3248 92.6951 81.4581 92.4484 81.7248C92.2017 81.9914 92.0784 82.3614 92.0784 82.8348C92.0784 83.3081 92.2017 83.6781 92.4484 83.9448C92.6951 84.2114 92.9951 84.3448 93.3484 84.3448C93.6151 84.3448 93.8451 84.2781 94.0384 84.1448C94.2384 84.0114 94.3717 83.8214 94.4384 83.5748H95.7884C95.6684 84.1348 95.3917 84.5848 94.9584 84.9248C94.5251 85.2648 93.9917 85.4348 93.3584 85.4348ZM96.9245 85.3148V78.1148H98.2045V82.3648L99.9645 80.3548H101.484L99.4545 82.6148L101.814 85.3148H100.214L98.2045 82.8248V85.3148H96.9245ZM103.578 85.3148L102.128 80.3548H103.398L104.258 83.9248L105.258 80.3548H106.678L107.678 83.9248L108.548 80.3548H109.818L108.358 85.3148H107.028L105.968 81.6048L104.908 85.3148H103.578ZM111.316 79.5848C111.082 79.5848 110.889 79.5148 110.736 79.3748C110.589 79.2348 110.516 79.0581 110.516 78.8448C110.516 78.6314 110.589 78.4581 110.736 78.3248C110.889 78.1848 111.082 78.1148 111.316 78.1148C111.549 78.1148 111.739 78.1848 111.886 78.3248C112.039 78.4581 112.116 78.6314 112.116 78.8448C112.116 79.0581 112.039 79.2348 111.886 79.3748C111.739 79.5148 111.549 79.5848 111.316 79.5848ZM110.676 85.3148V80.3548H111.956V85.3148H110.676ZM113.292 85.3148V80.3548H114.422L114.522 81.1948C114.675 80.9014 114.895 80.6681 115.182 80.4948C115.475 80.3214 115.818 80.2348 116.212 80.2348C116.825 80.2348 117.302 80.4281 117.642 80.8148C117.982 81.2014 118.152 81.7681 118.152 82.5148V85.3148H116.872V82.6348C116.872 82.2081 116.785 81.8814 116.612 81.6548C116.438 81.4281 116.168 81.3148 115.802 81.3148C115.442 81.3148 115.145 81.4414 114.912 81.6948C114.685 81.9481 114.572 82.3014 114.572 82.7548V85.3148H113.292ZM119.376 85.3148V78.1148H120.656V82.3648L122.416 80.3548H123.936L121.906 82.6148L124.266 85.3148H122.666L120.656 82.8248V85.3148H119.376ZM127.059 85.4348C126.559 85.4348 126.116 85.3281 125.729 85.1148C125.342 84.9014 125.039 84.6014 124.819 84.2148C124.599 83.8281 124.489 83.3814 124.489 82.8748C124.489 82.3614 124.596 81.9048 124.809 81.5048C125.029 81.1048 125.329 80.7948 125.709 80.5748C126.096 80.3481 126.549 80.2348 127.069 80.2348C127.556 80.2348 127.986 80.3414 128.359 80.5548C128.732 80.7681 129.022 81.0614 129.229 81.4348C129.442 81.8014 129.549 82.2114 129.549 82.6648C129.549 82.7381 129.546 82.8148 129.539 82.8948C129.539 82.9748 129.536 83.0581 129.529 83.1448H125.759C125.786 83.5314 125.919 83.8348 126.159 84.0548C126.406 84.2748 126.702 84.3848 127.049 84.3848C127.309 84.3848 127.526 84.3281 127.699 84.2148C127.879 84.0948 128.012 83.9414 128.099 83.7548H129.399C129.306 84.0681 129.149 84.3548 128.929 84.6148C128.716 84.8681 128.449 85.0681 128.129 85.2148C127.816 85.3614 127.459 85.4348 127.059 85.4348ZM127.069 81.2748C126.756 81.2748 126.479 81.3648 126.239 81.5448C125.999 81.7181 125.846 81.9848 125.779 82.3448H128.249C128.229 82.0181 128.109 81.7581 127.889 81.5648C127.669 81.3714 127.396 81.2748 127.069 81.2748ZM130.626 85.3148V78.1148H131.906V85.3148H130.626ZM86.1833 98.4348C85.7566 98.4348 85.4066 98.3681 85.1333 98.2348C84.86 98.0948 84.6566 97.9114 84.5233 97.6848C84.39 97.4581 84.3233 97.2081 84.3233 96.9348C84.3233 96.4748 84.5033 96.1014 84.8633 95.8148C85.2233 95.5281 85.7633 95.3848 86.4833 95.3848H87.7433V95.2648C87.7433 94.9248 87.6466 94.6748 87.4533 94.5148C87.26 94.3548 87.02 94.2748 86.7333 94.2748C86.4733 94.2748 86.2466 94.3381 86.0533 94.4648C85.86 94.5848 85.74 94.7648 85.6933 95.0048H84.4433C84.4766 94.6448 84.5966 94.3314 84.8033 94.0648C85.0166 93.7981 85.29 93.5948 85.6233 93.4548C85.9566 93.3081 86.33 93.2348 86.7433 93.2348C87.45 93.2348 88.0066 93.4114 88.4133 93.7648C88.82 94.1181 89.0233 94.6181 89.0233 95.2648V98.3148H87.9333L87.8133 97.5148C87.6666 97.7814 87.46 98.0014 87.1933 98.1748C86.9333 98.3481 86.5966 98.4348 86.1833 98.4348ZM86.4733 97.4348C86.84 97.4348 87.1233 97.3148 87.3233 97.0748C87.53 96.8348 87.66 96.5381 87.7133 96.1848H86.6233C86.2833 96.1848 86.04 96.2481 85.8933 96.3748C85.7466 96.4948 85.6733 96.6448 85.6733 96.8248C85.6733 97.0181 85.7466 97.1681 85.8933 97.2748C86.04 97.3814 86.2333 97.4348 86.4733 97.4348ZM90.2448 98.3148V93.3548H91.3748L91.4748 94.1948C91.6281 93.9014 91.8481 93.6681 92.1348 93.4948C92.4281 93.3214 92.7715 93.2348 93.1648 93.2348C93.7781 93.2348 94.2548 93.4281 94.5948 93.8148C94.9348 94.2014 95.1048 94.7681 95.1048 95.5148V98.3148H93.8248V95.6348C93.8248 95.2081 93.7381 94.8814 93.5648 94.6548C93.3915 94.4281 93.1215 94.3148 92.7548 94.3148C92.3948 94.3148 92.0981 94.4414 91.8648 94.6948C91.6381 94.9481 91.5248 95.3014 91.5248 95.7548V98.3148H90.2448ZM98.3788 98.4348C97.9388 98.4348 97.5521 98.3648 97.2188 98.2248C96.8854 98.0781 96.6188 97.8781 96.4188 97.6248C96.2188 97.3714 96.0988 97.0781 96.0588 96.7448H97.3488C97.3888 96.9381 97.4954 97.1048 97.6688 97.2448C97.8488 97.3781 98.0788 97.4448 98.3588 97.4448C98.6388 97.4448 98.8421 97.3881 98.9688 97.2748C99.1021 97.1614 99.1688 97.0314 99.1688 96.8848C99.1688 96.6714 99.0754 96.5281 98.8888 96.4548C98.7021 96.3748 98.4421 96.2981 98.1088 96.2248C97.8954 96.1781 97.6788 96.1214 97.4588 96.0548C97.2388 95.9881 97.0354 95.9048 96.8488 95.8048C96.6688 95.6981 96.5221 95.5648 96.4088 95.4048C96.2954 95.2381 96.2388 95.0348 96.2388 94.7948C96.2388 94.3548 96.4121 93.9848 96.7588 93.6848C97.1121 93.3848 97.6054 93.2348 98.2388 93.2348C98.8254 93.2348 99.2921 93.3714 99.6388 93.6448C99.9921 93.9181 100.202 94.2948 100.269 94.7748H99.0588C98.9854 94.4081 98.7088 94.2248 98.2288 94.2248C97.9888 94.2248 97.8021 94.2714 97.6688 94.3648C97.5421 94.4581 97.4788 94.5748 97.4788 94.7148C97.4788 94.8614 97.5754 94.9781 97.7688 95.0648C97.9621 95.1514 98.2188 95.2314 98.5388 95.3048C98.8854 95.3848 99.2021 95.4748 99.4888 95.5748C99.7821 95.6681 100.015 95.8114 100.189 96.0048C100.362 96.1914 100.449 96.4614 100.449 96.8148C100.455 97.1214 100.375 97.3981 100.209 97.6448C100.042 97.8914 99.8021 98.0848 99.4888 98.2248C99.1754 98.3648 98.8054 98.4348 98.3788 98.4348ZM103.993 98.4348C103.493 98.4348 103.049 98.3281 102.663 98.1148C102.276 97.9014 101.973 97.6014 101.753 97.2148C101.533 96.8281 101.423 96.3814 101.423 95.8748C101.423 95.3614 101.529 94.9048 101.743 94.5048C101.963 94.1048 102.263 93.7948 102.643 93.5748C103.029 93.3481 103.483 93.2348 104.003 93.2348C104.489 93.2348 104.919 93.3414 105.293 93.5548C105.666 93.7681 105.956 94.0614 106.163 94.4348C106.376 94.8014 106.483 95.2114 106.483 95.6648C106.483 95.7381 106.479 95.8148 106.473 95.8948C106.473 95.9748 106.469 96.0581 106.463 96.1448H102.693C102.719 96.5314 102.853 96.8348 103.093 97.0548C103.339 97.2748 103.636 97.3848 103.983 97.3848C104.243 97.3848 104.459 97.3281 104.633 97.2148C104.813 97.0948 104.946 96.9414 105.033 96.7548H106.333C106.239 97.0681 106.083 97.3548 105.863 97.6148C105.649 97.8681 105.383 98.0681 105.063 98.2148C104.749 98.3614 104.393 98.4348 103.993 98.4348ZM104.003 94.2748C103.689 94.2748 103.413 94.3648 103.173 94.5448C102.933 94.7181 102.779 94.9848 102.713 95.3448H105.183C105.163 95.0181 105.043 94.7581 104.823 94.5648C104.603 94.3714 104.329 94.2748 104.003 94.2748ZM107.559 98.3148V91.1148H108.839V94.1148C109.006 93.8414 109.229 93.6281 109.509 93.4748C109.796 93.3148 110.123 93.2348 110.489 93.2348C111.103 93.2348 111.576 93.4281 111.909 93.8148C112.249 94.2014 112.419 94.7681 112.419 95.5148V98.3148H111.149V95.6348C111.149 95.2081 111.063 94.8814 110.889 94.6548C110.723 94.4281 110.456 94.3148 110.089 94.3148C109.729 94.3148 109.429 94.4414 109.189 94.6948C108.956 94.9481 108.839 95.3014 108.839 95.7548V98.3148H107.559ZM116.053 98.4348C115.553 98.4348 115.11 98.3281 114.723 98.1148C114.337 97.9014 114.033 97.6014 113.813 97.2148C113.593 96.8281 113.483 96.3814 113.483 95.8748C113.483 95.3614 113.59 94.9048 113.803 94.5048C114.023 94.1048 114.323 93.7948 114.703 93.5748C115.09 93.3481 115.543 93.2348 116.063 93.2348C116.55 93.2348 116.98 93.3414 117.353 93.5548C117.727 93.7681 118.017 94.0614 118.223 94.4348C118.437 94.8014 118.543 95.2114 118.543 95.6648C118.543 95.7381 118.54 95.8148 118.533 95.8948C118.533 95.9748 118.53 96.0581 118.523 96.1448H114.753C114.78 96.5314 114.913 96.8348 115.153 97.0548C115.4 97.2748 115.697 97.3848 116.043 97.3848C116.303 97.3848 116.52 97.3281 116.693 97.2148C116.873 97.0948 117.007 96.9414 117.093 96.7548H118.393C118.3 97.0681 118.143 97.3548 117.923 97.6148C117.71 97.8681 117.443 98.0681 117.123 98.2148C116.81 98.3614 116.453 98.4348 116.053 98.4348ZM116.063 94.2748C115.75 94.2748 115.473 94.3648 115.233 94.5448C114.993 94.7181 114.84 94.9848 114.773 95.3448H117.243C117.223 95.0181 117.103 94.7581 116.883 94.5648C116.663 94.3714 116.39 94.2748 116.063 94.2748ZM119.62 98.3148V93.3548H120.75L120.85 94.1948C121.003 93.9014 121.223 93.6681 121.51 93.4948C121.803 93.3214 122.146 93.2348 122.54 93.2348C123.153 93.2348 123.63 93.4281 123.97 93.8148C124.31 94.2014 124.48 94.7681 124.48 95.5148V98.3148H123.2V95.6348C123.2 95.2081 123.113 94.8814 122.94 94.6548C122.766 94.4281 122.496 94.3148 122.13 94.3148C121.77 94.3148 121.473 94.4414 121.24 94.6948C121.013 94.9481 120.9 95.3014 120.9 95.7548V98.3148H119.62ZM126.254 98.3848C126.02 98.3848 125.827 98.3114 125.674 98.1648C125.527 98.0181 125.454 97.8414 125.454 97.6348C125.454 97.4214 125.527 97.2414 125.674 97.0948C125.827 96.9481 126.02 96.8748 126.254 96.8748C126.487 96.8748 126.677 96.9481 126.824 97.0948C126.977 97.2414 127.054 97.4214 127.054 97.6348C127.054 97.8414 126.977 98.0181 126.824 98.1648C126.677 98.3114 126.487 98.3848 126.254 98.3848Z" fill="white"/>
<path d="M190 89.3649L180 83.5914V95.1384L190 89.3649ZM170.95 90.3649H181V88.3649H170.95V90.3649Z" fill="#11172C"/>
<path d="M17.193 89.3649L27.193 83.5914V95.1384L17.193 89.3649ZM36.2432 90.3649H26.193V88.3649H36.2432V90.3649Z" fill="#11172C"/>
<defs>
<filter id="filter0_d_747_14190" x="-14.611" y="-135.992" width="234.442" height="443.16" filterUnits="userSpaceOnUse" color-interpolation-filters="sRGB">
<feFlood flood-opacity="0" result="BackgroundImageFix"/>
<feColorMatrix in="SourceAlpha" type="matrix" values="0 0 0 0 0 0 0 0 0 0 0 0 0 0 0 0 0 0 127 0" result="hardAlpha"/>
<feOffset dy="0.836545"/>
<feGaussianBlur stdDeviation="0.418273"/>
<feComposite in2="hardAlpha" operator="out"/>
<feColorMatrix type="matrix" values="0 0 0 0 0 0 0 0 0 0 0 0 0 0 0 0 0 0 0.25 0"/>
<feBlend mode="normal" in2="BackgroundImageFix" result="effect1_dropShadow_747_14190"/>
<feBlend mode="normal" in="SourceGraphic" in2="effect1_dropShadow_747_14190" result="shape"/>
</filter>
<radialGradient id="paint0_radial_747_14190" cx="0" cy="0" r="1" gradientUnits="userSpaceOnUse" gradientTransform="translate(102.61 84.7516) rotate(90.0829) scale(85.7843 82.29)">
<stop offset="0.391266" stop-color="#FF7A00" stop-opacity="0.17"/>
<stop offset="0.762759" stop-color="#FF7600" stop-opacity="0.35"/>
<stop offset="1" stop-color="#FF6600" stop-opacity="0.8"/>
</radialGradient>
<linearGradient id="paint1_linear_747_14190" x1="57.1089" y1="7.49551" x2="57.1089" y2="232.496" gradientUnits="userSpaceOnUse">
<stop offset="0.485806" stop-color="#D9946B"/>
<stop offset="0.836939" stop-color="#FFE4CD"/>
</linearGradient>
<clipPath id="clip0_747_14190">
<rect width="84.3649" height="149.68" fill="white" transform="translate(63.1865 9.53574)"/>
</clipPath>
</defs>
</svg>
