<svg viewBox="0 0 200 200" fill="none" xmlns="http://www.w3.org/2000/svg">
<g filter="url(#filter0_d_747_14188)">
<ellipse cx="92.6511" cy="99.7117" rx="59.6511" ry="58.7117" fill="url(#paint0_angular_747_14188)" shape-rendering="crispEdges"/>
</g>
<circle cx="92.6505" cy="99.7116" r="11.7423" fill="#FF7A00"/>
<path d="M129.914 130.824C129.112 130.824 128.399 130.686 127.776 130.411C127.157 130.133 126.669 129.75 126.315 129.263C125.96 128.776 125.781 128.216 125.778 127.582H128.562C128.565 127.778 128.625 127.954 128.741 128.109C128.86 128.262 129.023 128.381 129.228 128.467C129.434 128.554 129.669 128.597 129.934 128.597C130.189 128.597 130.415 128.552 130.61 128.462C130.806 128.37 130.958 128.242 131.068 128.08C131.177 127.917 131.23 127.732 131.227 127.523C131.23 127.317 131.167 127.135 131.038 126.976C130.912 126.817 130.734 126.693 130.506 126.603C130.277 126.514 130.014 126.469 129.715 126.469H128.681V124.56H129.715C129.99 124.56 130.232 124.515 130.441 124.426C130.653 124.336 130.817 124.212 130.933 124.053C131.053 123.894 131.111 123.711 131.107 123.506C131.111 123.307 131.063 123.131 130.963 122.979C130.864 122.826 130.725 122.707 130.546 122.621C130.37 122.535 130.166 122.492 129.934 122.492C129.682 122.492 129.457 122.536 129.258 122.626C129.062 122.715 128.908 122.84 128.796 122.999C128.683 123.158 128.625 123.34 128.622 123.546H125.977C125.98 122.922 126.151 122.372 126.489 121.895C126.83 121.418 127.297 121.043 127.891 120.771C128.484 120.5 129.165 120.364 129.934 120.364C130.686 120.364 131.351 120.491 131.928 120.747C132.508 121.002 132.96 121.353 133.285 121.801C133.613 122.245 133.775 122.753 133.772 123.327C133.779 123.897 133.583 124.364 133.185 124.729C132.791 125.093 132.291 125.309 131.684 125.375V125.455C132.506 125.544 133.124 125.796 133.538 126.21C133.953 126.621 134.157 127.138 134.15 127.761C134.153 128.358 133.974 128.887 133.613 129.347C133.255 129.808 132.756 130.169 132.117 130.431C131.48 130.693 130.746 130.824 129.914 130.824ZM138.875 130.824C138.092 130.824 137.398 130.686 136.791 130.411C136.188 130.133 135.713 129.75 135.365 129.263C135.02 128.776 134.844 128.216 134.838 127.582H137.522C137.532 127.934 137.668 128.214 137.93 128.423C138.195 128.631 138.51 128.736 138.875 128.736C139.156 128.736 139.405 128.676 139.62 128.557C139.836 128.434 140.005 128.262 140.127 128.04C140.25 127.818 140.31 127.559 140.306 127.264C140.31 126.966 140.25 126.707 140.127 126.489C140.005 126.267 139.836 126.096 139.62 125.977C139.405 125.854 139.156 125.793 138.875 125.793C138.583 125.793 138.313 125.864 138.064 126.006C137.819 126.146 137.638 126.34 137.522 126.588L135.096 126.111L135.494 120.503H142.335V122.71H137.761L137.562 124.957H137.622C137.781 124.649 138.056 124.394 138.447 124.192C138.838 123.986 139.292 123.884 139.809 123.884C140.416 123.884 140.956 124.024 141.43 124.306C141.907 124.588 142.283 124.977 142.559 125.475C142.837 125.968 142.974 126.538 142.971 127.185C142.974 127.894 142.805 128.524 142.464 129.074C142.126 129.621 141.65 130.05 141.037 130.362C140.424 130.67 139.703 130.824 138.875 130.824ZM145.8 130.685V123.048H148.405V124.5H148.484C148.643 124.023 148.915 123.645 149.3 123.367C149.684 123.088 150.141 122.949 150.672 122.949C151.209 122.949 151.671 123.091 152.059 123.377C152.447 123.658 152.68 124.033 152.76 124.5H152.839C152.969 124.033 153.244 123.658 153.665 123.377C154.085 123.091 154.579 122.949 155.146 122.949C155.879 122.949 156.472 123.184 156.926 123.655C157.383 124.126 157.612 124.752 157.612 125.534V130.685H154.868V126.23C154.868 125.895 154.783 125.634 154.614 125.445C154.445 125.252 154.218 125.156 153.933 125.156C153.651 125.156 153.428 125.252 153.262 125.445C153.099 125.634 153.018 125.895 153.018 126.23V130.685H150.393V126.23C150.393 125.895 150.309 125.634 150.14 125.445C149.971 125.252 149.744 125.156 149.459 125.156C149.27 125.156 149.107 125.199 148.971 125.286C148.835 125.372 148.729 125.496 148.653 125.658C148.58 125.818 148.544 126.008 148.544 126.23V130.685H145.8Z" fill="#222A68"/>
<path d="M110.202 122.478H114.45L120.468 132.063H104.892L110.202 122.478Z" fill="#222A68"/>
<path d="M112.326 120.081L120.468 123.676H104.892L112.326 120.081Z" fill="#222A68"/>
<defs>
<filter id="filter0_d_747_14188" x="29" y="41" width="127.302" height="125.423" filterUnits="userSpaceOnUse" color-interpolation-filters="sRGB">
<feFlood flood-opacity="0" result="BackgroundImageFix"/>
<feColorMatrix in="SourceAlpha" type="matrix" values="0 0 0 0 0 0 0 0 0 0 0 0 0 0 0 0 0 0 127 0" result="hardAlpha"/>
<feOffset dy="4"/>
<feGaussianBlur stdDeviation="2"/>
<feComposite in2="hardAlpha" operator="out"/>
<feColorMatrix type="matrix" values="0 0 0 0 0 0 0 0 0 0 0 0 0 0 0 0 0 0 0.05 0"/>
<feBlend mode="normal" in2="BackgroundImageFix" result="effect1_dropShadow_747_14188"/>
<feBlend mode="normal" in="SourceGraphic" in2="effect1_dropShadow_747_14188" result="shape"/>
</filter>
<radialGradient id="paint0_angular_747_14188" cx="0" cy="0" r="1" gradientUnits="userSpaceOnUse" gradientTransform="translate(92.6511 99.7117) rotate(90) scale(64.6344 65.6685)">
<stop offset="0.535069" stop-color="#FF6600" stop-opacity="0.8"/>
<stop offset="1" stop-color="#FF7A00" stop-opacity="0"/>
</radialGradient>
</defs>
</svg>
