<svg viewBox="0 0 200 200" fill="none" xmlns="http://www.w3.org/2000/svg">
<rect x="65.1379" y="78.1379" width="37.1724" height="63.7241" rx="3.41379" fill="white" stroke="#2C3C78" stroke-width="2.27586"/>
<path d="M103.099 101.863C103.099 121.047 101.754 140.724 101.754 140.724C101.754 140.724 64.7588 140.724 64.7588 101.863C64.7588 74.5058 84.7762 77.8919 95.3635 77.8919C105.951 77.8919 103.099 89.8707 103.099 101.863Z" fill="#2C3C78" fill-opacity="0.2"/>
<circle cx="83.724" cy="102.034" r="10.2414" fill="white" stroke="#2C3C78" stroke-width="2.27586"/>
<mask id="path-4-inside-1_747_13796" fill="white">
<path d="M77.1542 105.827C76.3165 104.376 75.9826 102.689 76.2049 101.028C76.4271 99.3672 77.1928 97.8268 78.3826 96.6471C79.5724 95.4674 81.1193 94.7147 82.7818 94.5066C84.4443 94.2985 86.129 94.6466 87.5728 95.4967L86.5093 97.3031C85.4644 96.6879 84.2453 96.436 83.0422 96.5866C81.839 96.7372 80.7196 97.2819 79.8586 98.1356C78.9975 98.9893 78.4434 100.104 78.2826 101.306C78.1217 102.508 78.3633 103.729 78.9696 104.779L77.1542 105.827Z"/>
</mask>
<path d="M77.1542 105.827L75.1832 106.965L76.3212 108.936L78.2921 107.798L77.1542 105.827ZM87.5728 95.4967L89.534 96.6513L90.6887 94.6901L88.7275 93.5355L87.5728 95.4967ZM86.5093 97.3031L85.3547 99.2643L87.3159 100.419L88.4706 98.4577L86.5093 97.3031ZM78.9696 104.779L80.1075 106.75L82.0785 105.612L80.9405 103.641L78.9696 104.779ZM79.1252 104.689C78.5387 103.674 78.3051 102.492 78.4606 101.33L73.9491 100.726C73.6602 102.885 74.0942 105.079 75.1832 106.965L79.1252 104.689ZM78.4606 101.33C78.6162 100.167 79.1522 99.089 79.9851 98.2632L76.7802 95.031C75.2335 96.5646 74.238 98.5671 73.9491 100.726L78.4606 101.33ZM79.9851 98.2632C80.8179 97.4374 81.9007 96.9105 83.0645 96.7648L82.4991 92.2484C80.3378 92.5189 78.3269 93.4973 76.7802 95.031L79.9851 98.2632ZM83.0645 96.7648C84.2282 96.6192 85.4075 96.8629 86.4182 97.4579L88.7275 93.5355C86.8504 92.4304 84.6604 91.9778 82.4991 92.2484L83.0645 96.7648ZM85.6116 94.342L84.5481 96.1485L88.4706 98.4577L89.534 96.6513L85.6116 94.342ZM87.664 95.3419C86.1859 94.4717 84.4614 94.1153 82.7595 94.3284L83.3248 98.8448C84.0292 98.7567 84.743 98.9042 85.3547 99.2643L87.664 95.3419ZM82.7595 94.3284C81.0576 94.5414 79.4741 95.3119 78.2561 96.5195L81.461 99.7517C81.9651 99.2519 82.6205 98.933 83.3248 98.8448L82.7595 94.3284ZM78.2561 96.5195C77.0382 97.7272 76.2543 99.3041 76.0268 101.004L80.5383 101.608C80.6325 100.904 80.9569 100.252 81.461 99.7517L78.2561 96.5195ZM76.0268 101.004C75.7993 102.704 76.141 104.432 76.9986 105.917L80.9405 103.641C80.5856 103.026 80.4442 102.311 80.5383 101.608L76.0268 101.004ZM77.8316 102.808L76.0163 103.856L78.2921 107.798L80.1075 106.75L77.8316 102.808Z" fill="#2C3C78" fill-opacity="0.3" mask="url(#path-4-inside-1_747_13796)"/>
<circle cx="83.724" cy="102.035" r="10.2414" fill="white" stroke="#2C3C78" stroke-width="2.27586"/>
<path d="M83.724 87.2417C86.0151 87.2417 88.275 87.7739 90.3253 88.7963C92.3757 89.8187 94.1606 91.3034 95.5392 93.1333C96.9179 94.9632 97.8526 97.0884 98.2698 99.3412C98.687 101.594 98.5752 103.913 97.9432 106.115" stroke="#6F7AA3" stroke-width="2.27586"/>
<mask id="path-8-inside-2_747_13796" fill="white">
<path d="M77.1542 105.828C76.3165 104.377 75.9826 102.689 76.2049 101.028C76.4271 99.3676 77.1928 97.8272 78.3826 96.6475C79.5724 95.4678 81.1193 94.7151 82.7818 94.507C84.4443 94.2989 86.129 94.6471 87.5728 95.4971L86.5093 97.3035C85.4644 96.6884 84.2453 96.4364 83.0422 96.587C81.839 96.7376 80.7196 97.2823 79.8586 98.136C78.9975 98.9898 78.4434 100.105 78.2826 101.306C78.1217 102.508 78.3633 103.729 78.9696 104.779L77.1542 105.828Z"/>
</mask>
<path d="M77.1542 105.828L75.1832 106.966L76.3212 108.936L78.2921 107.799L77.1542 105.828ZM87.5728 95.4971L89.534 96.6517L90.6887 94.6905L88.7275 93.5359L87.5728 95.4971ZM86.5093 97.3035L85.3547 99.2647L87.3159 100.419L88.4706 98.4582L86.5093 97.3035ZM78.9696 104.779L80.1075 106.75L82.0785 105.613L80.9405 103.642L78.9696 104.779ZM79.1252 104.69C78.5387 103.674 78.3051 102.493 78.4606 101.33L73.9491 100.726C73.6602 102.885 74.0942 105.079 75.1832 106.966L79.1252 104.69ZM78.4606 101.33C78.6162 100.168 79.1522 99.0894 79.9851 98.2636L76.7802 95.0314C75.2335 96.565 74.238 98.5676 73.9491 100.726L78.4606 101.33ZM79.9851 98.2636C80.8179 97.4378 81.9007 96.911 83.0645 96.7653L82.4991 92.2488C80.3378 92.5193 78.3269 93.4978 76.7802 95.0314L79.9851 98.2636ZM83.0645 96.7653C84.2282 96.6196 85.4075 96.8633 86.4182 97.4583L88.7275 93.5359C86.8504 92.4308 84.6604 91.9783 82.4991 92.2488L83.0645 96.7653ZM85.6116 94.3425L84.5481 96.1489L88.4706 98.4582L89.534 96.6517L85.6116 94.3425ZM87.664 95.3423C86.1859 94.4721 84.4614 94.1157 82.7595 94.3288L83.3248 98.8453C84.0292 98.7571 84.743 98.9046 85.3547 99.2647L87.664 95.3423ZM82.7595 94.3288C81.0576 94.5418 79.4741 95.3123 78.2561 96.5199L81.461 99.7521C81.9651 99.2523 82.6205 98.9334 83.3248 98.8453L82.7595 94.3288ZM78.2561 96.5199C77.0382 97.7276 76.2543 99.3045 76.0268 101.005L80.5383 101.608C80.6325 100.905 80.9569 100.252 81.461 99.7521L78.2561 96.5199ZM76.0268 101.005C75.7993 102.705 76.141 104.432 76.9986 105.917L80.9405 103.642C80.5856 103.027 80.4442 102.312 80.5383 101.608L76.0268 101.005ZM77.8316 102.809L76.0163 103.857L78.2921 107.799L80.1075 106.75L77.8316 102.809Z" fill="#2C3C78" fill-opacity="0.3" mask="url(#path-8-inside-2_747_13796)"/>
<path d="M126.862 130C126.862 137.557 122.564 144.965 118.108 150.585C115.897 153.374 113.683 155.678 112.022 157.285C111.192 158.087 110.501 158.714 110.02 159.138C110.014 159.144 110.007 159.15 110 159.156C109.993 159.15 109.986 159.144 109.98 159.138C109.499 158.714 108.808 158.087 107.978 157.285C106.317 155.678 104.103 153.374 101.892 150.585C97.4358 144.965 93.1379 137.557 93.1379 130C93.1379 120.687 100.687 113.138 110 113.138C119.313 113.138 126.862 120.687 126.862 130Z" fill="white" stroke="#2C3C78" stroke-width="2.27586"/>
<path d="M128 130.481C128 144.822 111.969 158.125 111.969 158.125C111.969 158.125 95.9375 144.822 95.9375 130.481C95.9375 121.517 103.115 114.25 111.969 114.25C120.823 114.25 128 121.517 128 130.481Z" fill="#2C3C78" fill-opacity="0.2"/>
<path d="M126.875 129.438C126.875 129.93 126.848 130.421 126.797 130.911L126.594 134.781L124.794 140.658L119.562 149.688L112.25 157.563L108.312 154.563C108.312 154.563 125.498 143.369 126.797 130.911L126.875 129.438Z" fill="#2C3C78" fill-opacity="0.6"/>
<circle cx="110" cy="130.563" r="7.29957" fill="white" stroke="#2C3C78" stroke-width="2.27586"/>
<mask id="path-14-inside-3_747_13796" fill="white">
<path d="M105.128 133.375C104.507 132.299 104.26 131.048 104.424 129.816C104.589 128.585 105.157 127.443 106.039 126.568C106.921 125.693 108.068 125.135 109.301 124.981C110.534 124.827 111.783 125.085 112.853 125.715L112.065 127.055C111.29 126.598 110.386 126.412 109.494 126.523C108.602 126.635 107.772 127.039 107.134 127.672C106.495 128.305 106.084 129.131 105.965 130.023C105.846 130.914 106.025 131.819 106.474 132.598L105.128 133.375Z"/>
</mask>
<path d="M105.128 133.375C104.507 132.299 104.26 131.048 104.424 129.816C104.589 128.585 105.157 127.443 106.039 126.568C106.921 125.693 108.068 125.135 109.301 124.981C110.534 124.827 111.783 125.085 112.853 125.715L112.065 127.055C111.29 126.598 110.386 126.412 109.494 126.523C108.602 126.635 107.772 127.039 107.134 127.672C106.495 128.305 106.084 129.131 105.965 130.023C105.846 130.914 106.025 131.819 106.474 132.598L105.128 133.375Z" stroke="#2C3C78" stroke-opacity="0.3" stroke-width="4.55172" mask="url(#path-14-inside-3_747_13796)"/>
<circle cx="39" cy="30" r="13.5" fill="white" stroke="#6F7AA3" stroke-width="3"/>
<circle cx="147" cy="45" r="7.2" fill="white" stroke="#6F7AA3" stroke-width="1.6"/>
<circle cx="169" cy="102" r="7.2" fill="white" stroke="#2C3C78" stroke-width="1.6"/>
<mask id="path-18-inside-4_747_13796" fill="white">
<path d="M164.381 104.666C163.792 103.646 163.557 102.459 163.713 101.292C163.87 100.124 164.408 99.0412 165.245 98.2118C166.081 97.3824 167.168 96.8533 168.337 96.707C169.506 96.5607 170.69 96.8054 171.705 97.4031L170.958 98.673C170.223 98.2405 169.366 98.0634 168.52 98.1693C167.674 98.2752 166.887 98.6581 166.282 99.2583C165.677 99.8585 165.287 100.642 165.174 101.487C165.061 102.332 165.231 103.191 165.657 103.929L164.381 104.666Z"/>
</mask>
<path d="M164.381 104.666C163.792 103.646 163.557 102.459 163.713 101.292C163.87 100.124 164.408 99.0412 165.245 98.2118C166.081 97.3824 167.168 96.8533 168.337 96.707C169.506 96.5607 170.69 96.8054 171.705 97.4031L170.958 98.673C170.223 98.2405 169.366 98.0634 168.52 98.1693C167.674 98.2752 166.887 98.6581 166.282 99.2583C165.677 99.8585 165.287 100.642 165.174 101.487C165.061 102.332 165.231 103.191 165.657 103.929L164.381 104.666Z" stroke="#2C3C78" stroke-opacity="0.3" stroke-width="3.2" mask="url(#path-18-inside-4_747_13796)"/>
<circle cx="69" cy="53" r="7.2" fill="white" stroke="#2C3C78" stroke-width="1.6"/>
<mask id="path-20-inside-5_747_13796" fill="white">
<path d="M64.3809 55.6657C63.7919 54.6456 63.5572 53.4592 63.7135 52.2917C63.8697 51.1241 64.4081 50.0412 65.2445 49.2118C66.081 48.3824 67.1684 47.8533 68.3373 47.707C69.5061 47.5607 70.6904 47.8054 71.7055 48.4031L70.9578 49.673C70.2232 49.2405 69.3661 49.0634 68.5203 49.1693C67.6745 49.2752 66.8875 49.6581 66.2821 50.2583C65.6768 50.8585 65.2872 51.6422 65.1742 52.4871C65.0611 53.332 65.2309 54.1906 65.6572 54.9289L64.3809 55.6657Z"/>
</mask>
<path d="M64.3809 55.6657C63.7919 54.6456 63.5572 53.4592 63.7135 52.2917C63.8697 51.1241 64.4081 50.0412 65.2445 49.2118C66.081 48.3824 67.1684 47.8533 68.3373 47.707C69.5061 47.5607 70.6904 47.8054 71.7055 48.4031L70.9578 49.673C70.2232 49.2405 69.3661 49.0634 68.5203 49.1693C67.6745 49.2752 66.8875 49.6581 66.2821 50.2583C65.6768 50.8585 65.2872 51.6422 65.1742 52.4871C65.0611 53.332 65.2309 54.1906 65.6572 54.9289L64.3809 55.6657Z" stroke="#2C3C78" stroke-opacity="0.3" stroke-width="3.2" mask="url(#path-20-inside-5_747_13796)"/>
<circle cx="31" cy="124" r="7.2" fill="white" stroke="#2C3C78" stroke-width="1.6"/>
<mask id="path-22-inside-6_747_13796" fill="white">
<path d="M26.3809 126.666C25.7919 125.646 25.5572 124.459 25.7135 123.292C25.8697 122.124 26.4081 121.041 27.2445 120.212C28.081 119.382 29.1684 118.853 30.3373 118.707C31.5061 118.561 32.6904 118.805 33.7055 119.403L32.9578 120.673C32.2232 120.241 31.3661 120.063 30.5203 120.169C29.6745 120.275 28.8875 120.658 28.2821 121.258C27.6768 121.859 27.2872 122.642 27.1742 123.487C27.0611 124.332 27.2309 125.191 27.6572 125.929L26.3809 126.666Z"/>
</mask>
<path d="M26.3809 126.666C25.7919 125.646 25.5572 124.459 25.7135 123.292C25.8697 122.124 26.4081 121.041 27.2445 120.212C28.081 119.382 29.1684 118.853 30.3373 118.707C31.5061 118.561 32.6904 118.805 33.7055 119.403L32.9578 120.673C32.2232 120.241 31.3661 120.063 30.5203 120.169C29.6745 120.275 28.8875 120.658 28.2821 121.258C27.6768 121.859 27.2872 122.642 27.1742 123.487C27.0611 124.332 27.2309 125.191 27.6572 125.929L26.3809 126.666Z" stroke="#2C3C78" stroke-opacity="0.3" stroke-width="3.2" mask="url(#path-22-inside-6_747_13796)"/>
<circle cx="149" cy="178" r="5.2" fill="white" stroke="#2C3C78" stroke-width="1.6"/>
<mask id="path-24-inside-7_747_13796" fill="white">
<path d="M145.537 179.999C145.095 179.234 144.919 178.344 145.036 177.468C145.153 176.593 145.557 175.78 146.184 175.158C146.812 174.536 147.627 174.139 148.504 174.03C149.381 173.92 150.269 174.104 151.03 174.552L150.469 175.504C149.918 175.18 149.276 175.047 148.641 175.126C148.007 175.206 147.417 175.493 146.963 175.943C146.509 176.393 146.216 176.981 146.132 177.615C146.047 178.249 146.174 178.892 146.494 179.446L145.537 179.999Z"/>
</mask>
<path d="M145.537 179.999C145.095 179.234 144.919 178.344 145.036 177.468C145.153 176.593 145.557 175.78 146.184 175.158C146.812 174.536 147.627 174.139 148.504 174.03C149.381 173.92 150.269 174.104 151.03 174.552L150.469 175.504C149.918 175.18 149.276 175.047 148.641 175.126C148.007 175.206 147.417 175.493 146.963 175.943C146.509 176.393 146.216 176.981 146.132 177.615C146.047 178.249 146.174 178.892 146.494 179.446L145.537 179.999Z" stroke="#2C3C78" stroke-opacity="0.3" stroke-width="3.2" mask="url(#path-24-inside-7_747_13796)"/>
<rect x="110" y="65" width="25" height="25" rx="2" fill="#C55C5C"/>
<rect x="110" y="65" width="25" height="25" rx="2" fill="url(#paint0_diamond_747_13796)"/>
<path d="M123.279 85.4995H121.017V83.2495H123.279V85.4995ZM123.279 81.7495H121.017V81.7443C121.017 80.5068 121.017 79.438 121.523 78.6895C121.918 78.1926 122.408 77.7794 122.966 77.4745C123.218 77.314 123.456 77.1618 123.655 77.0035C124.084 76.6735 124.407 76.2269 124.586 75.7177C124.764 75.2086 124.79 74.659 124.66 74.1355C124.456 73.6517 124.091 73.2527 123.626 73.006C123.16 72.7594 122.624 72.6801 122.106 72.7818C121.589 72.8834 121.123 73.1597 120.787 73.5638C120.451 73.9679 120.266 74.4751 120.262 74.9995H118C118 73.8061 118.477 72.6615 119.325 71.8175C120.174 70.9736 121.325 70.4995 122.525 70.4995C123.377 70.497 124.213 70.7322 124.937 71.1785C125.662 71.6247 126.246 72.2641 126.623 73.024C126.962 73.7983 127.075 74.6515 126.951 75.4868C126.826 76.3221 126.469 77.1059 125.919 77.749C125.577 78.1255 125.195 78.4615 124.777 78.7518C124.411 79.0024 124.078 79.2963 123.784 79.627C123.369 80.2529 123.19 81.0049 123.279 81.7495V81.7495Z" fill="white"/>
<defs>
<radialGradient id="paint0_diamond_747_13796" cx="0" cy="0" r="1" gradientUnits="userSpaceOnUse" gradientTransform="translate(141 76) rotate(160.145) scale(19.1377 44.7027)">
<stop stop-color="#C55C5C"/>
<stop offset="1" stop-color="white" stop-opacity="0"/>
</radialGradient>
</defs>
</svg>
