<svg viewBox="0 0 200 200" fill="none" xmlns="http://www.w3.org/2000/svg">
<path d="M94.0879 143.573L88.2373 168.5H44C51.5175 149.523 57.1368 134.43 58.5246 132.36C59.9124 130.29 59.1029 126.322 58.5246 124.597C59.1029 112.808 60.4329 88.5407 61.1268 85.7805C61.8207 83.0202 64.8855 78.3047 66.3312 76.292C68.6442 64.5033 73.4439 39.8908 74.1378 35.7504C74.8317 31.61 77.3182 32.3001 78.4748 33.1627L81.9444 37.4756L83.8044 126.86H106.501L94.0879 143.573Z" fill="#D9946B"/>
<path d="M132.547 71.5946C128.658 69.0106 129.793 43.565 132.035 39.0945C134.278 34.624 137.837 32.1569 139.984 33.584C142.132 35.0111 141.74 38.5176 141.038 44.5314C140.483 49.2851 137.126 74.6371 132.547 71.5946Z" fill="#D9946B"/>
<rect x="82.5" y="32.5" width="49" height="93" rx="2.5" fill="#EFFFFF" stroke="#0A1132" stroke-width="3"/>
<path d="M138.813 69.3354C140.776 72.3174 139.144 73.74 137.131 75.4948C135.118 77.2496 132.608 77.337 131.524 75.6901C130.44 74.0432 131.193 71.2856 133.206 69.5308C135.219 67.776 136.502 65.8243 138.813 69.3354Z" fill="#D9946B"/>
<path d="M141.427 61.832C142.607 65.9718 140.155 67.2785 137.13 68.8903C134.106 70.5022 131.125 69.9554 130.473 67.6691C129.821 65.3828 131.745 62.2227 134.769 60.6108C137.794 58.999 140.037 56.9577 141.427 61.832Z" fill="#D9946B"/>
<path d="M143.001 52.5375C143.001 58.0633 139.629 58.0602 137.118 61.0703C133.704 62.8899 131.579 62.4367 130.635 59.1269C129.692 55.8171 131.695 51.659 135.109 49.8393C138.524 48.0197 143.001 44.8502 143.001 52.5375Z" fill="#D9946B"/>
<g clip-path="url(#clip0_747_14121)">
<circle cx="119.571" cy="79.4406" r="2.23353" fill="#FF7A00"/>
<ellipse cx="119.098" cy="79.5083" rx="15.7024" ry="15.4316" fill="url(#paint0_angular_747_14121)"/>
</g>
<path d="M166.795 87L156.795 81.2265V92.7735L166.795 87ZM145.795 88H157.795V86H145.795V88Z" fill="#11172C"/>
<path d="M33 87L43 81.2265V92.7735L33 87ZM54 88H42V86H54V88Z" fill="#11172C"/>
<defs>
<radialGradient id="paint0_angular_747_14121" cx="0" cy="0" r="1" gradientUnits="userSpaceOnUse" gradientTransform="translate(119.098 79.5083) rotate(90) scale(16.9883 17.2864)">
<stop offset="0.535069" stop-color="#FF6600" stop-opacity="0.8"/>
<stop offset="1" stop-color="#FF7A00" stop-opacity="0"/>
</radialGradient>
<clipPath id="clip0_747_14121">
<rect width="27.0628" height="31.5733" fill="white" transform="translate(103.396 64.0767)"/>
</clipPath>
</defs>
</svg>
