<svg viewBox="0 0 200 200" fill="none" xmlns="http://www.w3.org/2000/svg">
<rect x="68.5" y="84.5" width="49" height="84" rx="4.5" fill="white" stroke="#2C3C78" stroke-width="3"/>
<path d="M118.539 115.773C118.539 141.062 116.766 167 116.766 167C116.766 167 68 167 68 115.773C68 79.7123 94.3866 84.1757 108.343 84.1757C122.299 84.1757 118.539 99.966 118.539 115.773Z" fill="#2C3C78" fill-opacity="0.2"/>
<circle cx="93" cy="116" r="13.5" fill="white" stroke="#2C3C78" stroke-width="3"/>
<mask id="path-4-inside-1_747_13797" fill="white">
<path d="M84.3403 121C83.236 119.087 82.796 116.862 83.0889 114.673C83.3819 112.484 84.3913 110.454 85.9596 108.899C87.528 107.344 89.567 106.351 91.7585 106.077C93.95 105.803 96.1707 106.262 98.074 107.382L96.6721 109.763C95.2948 108.952 93.6877 108.62 92.1017 108.819C90.5158 109.017 89.0402 109.735 87.9052 110.861C86.7702 111.986 86.0397 113.456 85.8277 115.04C85.6157 116.624 85.9342 118.234 86.7333 119.618L84.3403 121Z"/>
</mask>
<path d="M84.3403 121L81.7423 122.5L83.2423 125.098L85.8403 123.598L84.3403 121ZM98.074 107.382L100.659 108.904L102.181 106.319L99.596 104.797L98.074 107.382ZM96.6721 109.763L95.1501 112.349L97.7353 113.871L99.2573 111.285L96.6721 109.763ZM86.7333 119.618L88.2333 122.216L90.8314 120.716L89.3314 118.118L86.7333 119.618ZM86.9384 119.5C86.1654 118.161 85.8574 116.604 86.0624 115.071L80.1154 114.275C79.7346 117.121 80.3067 120.013 81.7423 122.5L86.9384 119.5ZM86.0624 115.071C86.2675 113.539 86.9741 112.117 88.0719 111.029L83.8473 106.768C81.8085 108.79 80.4963 111.43 80.1154 114.275L86.0624 115.071ZM88.0719 111.029C89.1698 109.94 90.5971 109.246 92.1311 109.054L91.3859 103.1C88.5369 103.457 85.8862 104.747 83.8473 106.768L88.0719 111.029ZM92.1311 109.054C93.6652 108.862 95.2197 109.183 96.552 109.967L99.596 104.797C97.1218 103.34 94.2349 102.744 91.3859 103.1L92.1311 109.054ZM95.4887 105.86L94.0869 108.241L99.2573 111.285L100.659 108.904L95.4887 105.86ZM98.1941 107.178C96.2458 106.031 93.9725 105.561 91.7291 105.842L92.4744 111.796C93.4029 111.679 94.3437 111.874 95.1501 112.349L98.1941 107.178ZM91.7291 105.842C89.4857 106.123 87.3984 107.139 85.7929 108.73L90.0175 112.991C90.682 112.332 91.5459 111.912 92.4744 111.796L91.7291 105.842ZM85.7929 108.73C84.1874 110.322 83.1541 112.401 82.8542 114.642L88.8012 115.438C88.9253 114.51 89.353 113.65 90.0175 112.991L85.7929 108.73ZM82.8542 114.642C82.5544 116.883 83.0048 119.16 84.1353 121.118L89.3314 118.118C88.8635 117.308 88.6771 116.365 88.8012 115.438L82.8542 114.642ZM85.2333 117.02L82.8403 118.402L85.8403 123.598L88.2333 122.216L85.2333 117.02Z" fill="#2C3C78" fill-opacity="0.3" mask="url(#path-4-inside-1_747_13797)"/>
<circle cx="93" cy="116" r="13.5" fill="white" stroke="#2C3C78" stroke-width="3"/>
<path d="M93 96.5002C96.0201 96.5002 98.999 97.2018 101.702 98.5495C104.405 99.8972 106.757 101.854 108.575 104.266C110.392 106.679 111.624 109.48 112.174 112.45C112.724 115.419 112.577 118.476 111.743 121.379" stroke="#6F7AA3" stroke-width="3"/>
<mask id="path-8-inside-2_747_13797" fill="white">
<path d="M84.3394 121C83.2351 119.087 82.795 116.863 83.088 114.674C83.3809 112.484 84.3903 110.454 85.9586 108.899C87.527 107.344 89.566 106.352 91.7576 106.077C93.9491 105.803 96.1697 106.262 98.073 107.382L96.6711 109.764C95.2938 108.953 93.6867 108.621 92.1008 108.819C90.5148 109.018 89.0392 109.736 87.9042 110.861C86.7692 111.986 86.0387 113.456 85.8267 115.04C85.6148 116.624 85.9332 118.234 86.7324 119.618L84.3394 121Z"/>
</mask>
<path d="M84.3394 121L81.7413 122.5L83.2413 125.098L85.8394 123.598L84.3394 121ZM98.073 107.382L100.658 108.904L102.18 106.319L99.595 104.797L98.073 107.382ZM96.6711 109.764L95.1491 112.349L97.7344 113.871L99.2564 111.286L96.6711 109.764ZM86.7324 119.618L88.2324 122.216L90.8304 120.716L89.3304 118.118L86.7324 119.618ZM86.9374 119.5C86.1644 118.161 85.8564 116.604 86.0615 115.071L80.1145 114.276C79.7337 117.122 80.3057 120.013 81.7413 122.5L86.9374 119.5ZM86.0615 115.071C86.2665 113.539 86.9731 112.118 88.0709 111.029L83.8464 106.769C81.8075 108.79 80.4953 111.43 80.1145 114.276L86.0615 115.071ZM88.0709 111.029C89.1688 109.941 90.5961 109.246 92.1302 109.054L91.3849 103.101C88.536 103.457 85.8852 104.747 83.8464 106.769L88.0709 111.029ZM92.1302 109.054C93.6642 108.862 95.2187 109.183 96.551 109.968L99.595 104.797C97.1208 103.341 94.2339 102.744 91.3849 103.101L92.1302 109.054ZM95.4878 105.86L94.0859 108.242L99.2564 111.286L100.658 108.904L95.4878 105.86ZM98.1931 107.178C96.2448 106.031 93.9715 105.562 91.7281 105.842L92.4734 111.796C93.4019 111.68 94.3427 111.874 95.1491 112.349L98.1931 107.178ZM91.7281 105.842C89.4847 106.123 87.3974 107.139 85.7919 108.731L90.0165 112.991C90.681 112.332 91.5449 111.912 92.4734 111.796L91.7281 105.842ZM85.7919 108.731C84.1864 110.323 83.1531 112.401 82.8533 114.642L88.8002 115.438C88.9244 114.51 89.352 113.65 90.0165 112.991L85.7919 108.731ZM82.8533 114.642C82.5534 116.883 83.0038 119.16 84.1343 121.118L89.3304 118.118C88.8626 117.308 88.6761 116.365 88.8002 115.438L82.8533 114.642ZM85.2324 117.02L82.8394 118.402L85.8394 123.598L88.2324 122.216L85.2324 117.02Z" fill="#2C3C78" fill-opacity="0.3" mask="url(#path-8-inside-2_747_13797)"/>
<circle cx="39" cy="30" r="13.5" fill="white" stroke="#6F7AA3" stroke-width="3"/>
<circle cx="147" cy="45" r="7.2" fill="white" stroke="#6F7AA3" stroke-width="1.6"/>
<circle cx="169" cy="102" r="7.2" fill="white" stroke="#2C3C78" stroke-width="1.6"/>
<mask id="path-13-inside-3_747_13797" fill="white">
<path d="M164.381 104.666C163.792 103.646 163.557 102.459 163.713 101.292C163.87 100.124 164.408 99.0412 165.245 98.2118C166.081 97.3824 167.168 96.8533 168.337 96.707C169.506 96.5607 170.69 96.8054 171.705 97.4031L170.958 98.673C170.223 98.2405 169.366 98.0634 168.52 98.1693C167.674 98.2752 166.887 98.6581 166.282 99.2583C165.677 99.8585 165.287 100.642 165.174 101.487C165.061 102.332 165.231 103.191 165.657 103.929L164.381 104.666Z"/>
</mask>
<path d="M164.381 104.666C163.792 103.646 163.557 102.459 163.713 101.292C163.87 100.124 164.408 99.0412 165.245 98.2118C166.081 97.3824 167.168 96.8533 168.337 96.707C169.506 96.5607 170.69 96.8054 171.705 97.4031L170.958 98.673C170.223 98.2405 169.366 98.0634 168.52 98.1693C167.674 98.2752 166.887 98.6581 166.282 99.2583C165.677 99.8585 165.287 100.642 165.174 101.487C165.061 102.332 165.231 103.191 165.657 103.929L164.381 104.666Z" stroke="#2C3C78" stroke-opacity="0.3" stroke-width="3.2" mask="url(#path-13-inside-3_747_13797)"/>
<circle cx="69" cy="53" r="7.2" fill="white" stroke="#2C3C78" stroke-width="1.6"/>
<mask id="path-15-inside-4_747_13797" fill="white">
<path d="M64.3809 55.6657C63.7919 54.6456 63.5572 53.4592 63.7135 52.2917C63.8697 51.1241 64.4081 50.0412 65.2445 49.2118C66.081 48.3824 67.1684 47.8533 68.3373 47.707C69.5061 47.5607 70.6904 47.8054 71.7055 48.4031L70.9578 49.673C70.2232 49.2405 69.3661 49.0634 68.5203 49.1693C67.6745 49.2752 66.8875 49.6581 66.2821 50.2583C65.6768 50.8585 65.2872 51.6422 65.1742 52.4871C65.0611 53.332 65.2309 54.1906 65.6572 54.9289L64.3809 55.6657Z"/>
</mask>
<path d="M64.3809 55.6657C63.7919 54.6456 63.5572 53.4592 63.7135 52.2917C63.8697 51.1241 64.4081 50.0412 65.2445 49.2118C66.081 48.3824 67.1684 47.8533 68.3373 47.707C69.5061 47.5607 70.6904 47.8054 71.7055 48.4031L70.9578 49.673C70.2232 49.2405 69.3661 49.0634 68.5203 49.1693C67.6745 49.2752 66.8875 49.6581 66.2821 50.2583C65.6768 50.8585 65.2872 51.6422 65.1742 52.4871C65.0611 53.332 65.2309 54.1906 65.6572 54.9289L64.3809 55.6657Z" stroke="#2C3C78" stroke-opacity="0.3" stroke-width="3.2" mask="url(#path-15-inside-4_747_13797)"/>
<circle cx="31" cy="124" r="7.2" fill="white" stroke="#2C3C78" stroke-width="1.6"/>
<mask id="path-17-inside-5_747_13797" fill="white">
<path d="M26.3809 126.666C25.7919 125.646 25.5572 124.459 25.7135 123.292C25.8697 122.124 26.4081 121.041 27.2445 120.212C28.081 119.382 29.1684 118.853 30.3373 118.707C31.5061 118.561 32.6904 118.805 33.7055 119.403L32.9578 120.673C32.2232 120.241 31.3661 120.063 30.5203 120.169C29.6745 120.275 28.8875 120.658 28.2821 121.258C27.6768 121.859 27.2872 122.642 27.1742 123.487C27.0611 124.332 27.2309 125.191 27.6572 125.929L26.3809 126.666Z"/>
</mask>
<path d="M26.3809 126.666C25.7919 125.646 25.5572 124.459 25.7135 123.292C25.8697 122.124 26.4081 121.041 27.2445 120.212C28.081 119.382 29.1684 118.853 30.3373 118.707C31.5061 118.561 32.6904 118.805 33.7055 119.403L32.9578 120.673C32.2232 120.241 31.3661 120.063 30.5203 120.169C29.6745 120.275 28.8875 120.658 28.2821 121.258C27.6768 121.859 27.2872 122.642 27.1742 123.487C27.0611 124.332 27.2309 125.191 27.6572 125.929L26.3809 126.666Z" stroke="#2C3C78" stroke-opacity="0.3" stroke-width="3.2" mask="url(#path-17-inside-5_747_13797)"/>
<circle cx="149" cy="178" r="5.2" fill="white" stroke="#2C3C78" stroke-width="1.6"/>
<mask id="path-19-inside-6_747_13797" fill="white">
<path d="M145.537 179.999C145.095 179.234 144.919 178.344 145.036 177.468C145.153 176.593 145.557 175.78 146.184 175.158C146.812 174.536 147.627 174.139 148.504 174.03C149.381 173.92 150.269 174.104 151.03 174.552L150.469 175.504C149.918 175.18 149.276 175.047 148.641 175.126C148.007 175.206 147.417 175.493 146.963 175.943C146.509 176.393 146.216 176.981 146.132 177.615C146.047 178.249 146.174 178.892 146.494 179.446L145.537 179.999Z"/>
</mask>
<path d="M145.537 179.999C145.095 179.234 144.919 178.344 145.036 177.468C145.153 176.593 145.557 175.78 146.184 175.158C146.812 174.536 147.627 174.139 148.504 174.03C149.381 173.92 150.269 174.104 151.03 174.552L150.469 175.504C149.918 175.18 149.276 175.047 148.641 175.126C148.007 175.206 147.417 175.493 146.963 175.943C146.509 176.393 146.216 176.981 146.132 177.615C146.047 178.249 146.174 178.892 146.494 179.446L145.537 179.999Z" stroke="#2C3C78" stroke-opacity="0.3" stroke-width="3.2" mask="url(#path-19-inside-6_747_13797)"/>
<rect x="102" y="134" width="25" height="25" rx="2" fill="#C55C5C"/>
<rect x="102" y="134" width="25" height="25" rx="2" fill="url(#paint0_diamond_747_13797)"/>
<path fill-rule="evenodd" clip-rule="evenodd" d="M107.916 154.077C108.215 154.407 108.296 154.497 108.603 154.19L114.689 148.104L120.346 153.761C120.737 154.151 121.37 154.151 121.76 153.761C122.151 153.37 122.151 152.737 121.76 152.347L116.104 146.69L122.187 140.606C122.496 140.298 122.407 140.217 122.074 139.914C121.986 139.834 121.88 139.738 121.76 139.619C121.638 139.497 121.541 139.389 121.46 139.3C121.161 138.969 121.082 138.882 120.775 139.19L114.689 145.276L109.032 139.619C108.642 139.228 108.009 139.228 107.618 139.619C107.228 140.009 107.228 140.642 107.618 141.033L113.275 146.69L107.189 152.776C106.882 153.083 106.97 153.163 107.301 153.462C107.39 153.543 107.497 153.639 107.618 153.761C107.739 153.882 107.836 153.988 107.916 154.077Z" fill="white"/>
<defs>
<radialGradient id="paint0_diamond_747_13797" cx="0" cy="0" r="1" gradientUnits="userSpaceOnUse" gradientTransform="translate(133 145) rotate(160.145) scale(19.1377 44.7027)">
<stop stop-color="#C55C5C"/>
<stop offset="1" stop-color="white" stop-opacity="0"/>
</radialGradient>
</defs>
</svg>
