<svg viewBox="0 0 200 200" fill="none" xmlns="http://www.w3.org/2000/svg">
<path d="M98.0879 152.574L92.2373 177.5H48C55.5175 158.523 61.1368 143.43 62.5246 141.36C63.9124 139.29 63.1029 135.322 62.5246 133.597C63.1029 121.808 64.4329 97.5409 65.1268 94.7806C65.8207 92.0203 68.8855 87.3049 70.3312 85.2922C72.6442 73.5035 77.4439 48.891 78.1378 44.7506C78.8317 40.6102 81.3182 41.3002 82.4748 42.1628L85.9444 46.4757L87.8044 135.86H110.501L98.0879 152.574Z" fill="#D9946B"/>
<path d="M136.547 80.5948C132.658 78.0107 133.793 52.5652 136.035 48.0947C138.278 43.6242 141.837 41.157 143.984 42.5842C146.132 44.0113 145.74 47.5178 145.038 53.5316C144.483 58.2852 141.126 83.6373 136.547 80.5948Z" fill="#D9946B"/>
<rect x="86.5" y="41.5001" width="49" height="93" rx="2.5" fill="#EFFFFF" stroke="#0A1132" stroke-width="3"/>
<path d="M142.813 78.3356C144.776 81.3176 143.144 82.7401 141.131 84.4949C139.118 86.2497 136.608 86.3372 135.524 84.6903C134.44 83.0434 135.193 80.2857 137.206 78.5309C139.219 76.7761 140.502 74.8245 142.813 78.3356Z" fill="#D9946B"/>
<path d="M145.427 70.8322C146.607 74.9719 144.155 76.2786 141.13 77.8905C138.106 79.5023 135.125 78.9556 134.473 76.6693C133.821 74.3829 135.745 71.2228 138.769 69.611C141.794 67.9991 144.037 65.9579 145.427 70.8322Z" fill="#D9946B"/>
<path d="M147.001 61.5376C147.001 67.0634 143.629 67.0603 141.118 70.0703C137.704 71.89 135.579 71.4368 134.635 68.127C133.692 64.8172 135.695 60.659 139.109 58.8394C142.524 57.0198 147.001 53.8503 147.001 61.5376Z" fill="#D9946B"/>
<path d="M28.0065 88.2296L27.0067 88.2478L27.0067 88.2478L28.0065 88.2296ZM34.9877 59.0024L34.1041 58.5343L34.1041 58.5343L34.9877 59.0024ZM55.2463 36.8088L55.7928 37.6462L55.7928 37.6462L55.2463 36.8088ZM83.7171 27.1975L72.9758 22.9599L74.6765 34.3809L83.7171 27.1975ZM36.914 116.683C31.9096 108.015 29.1887 98.2184 29.0063 88.2114L27.0067 88.2478C27.1952 98.5935 30.0082 108.722 35.1819 117.683L36.914 116.683ZM29.0063 88.2114C28.824 78.2043 31.1862 68.3149 35.8714 59.4706L34.1041 58.5343C29.2603 67.678 26.8181 77.9021 27.0067 88.2478L29.0063 88.2114ZM35.8714 59.4706C40.5566 50.6262 47.4114 43.1167 55.7928 37.6462L54.6997 35.9714C46.0346 41.627 38.9479 49.3906 34.1041 58.5343L35.8714 59.4706ZM55.7928 37.6462C61.6922 33.7958 68.2118 31.0444 75.0367 29.4983L74.5948 27.5477C67.5389 29.1461 60.7987 31.9907 54.6997 35.9714L55.7928 37.6462Z" fill="#11172C"/>
<path d="M144.869 155.313L145.467 156.115L145.467 156.115L144.869 155.313ZM163.663 131.957L164.574 132.369L164.574 132.369L163.663 131.957ZM168.787 102.441L169.783 102.36L169.783 102.36L168.787 102.441ZM158.959 74.1433L168.892 80.0322L158.825 85.6895L158.959 74.1433ZM116.968 165.678C126.868 164.324 136.263 160.481 144.271 154.511L145.467 156.115C137.187 162.287 127.474 166.26 117.239 167.66L116.968 165.678ZM144.271 154.511C152.279 148.541 158.638 140.638 162.752 131.545L164.574 132.369C160.321 141.771 153.746 149.942 145.467 156.115L144.271 154.511ZM162.752 131.545C166.865 122.451 168.599 112.465 167.79 102.522L169.783 102.36C170.62 112.641 168.827 122.967 164.574 132.369L162.752 131.545ZM167.79 102.522C167.221 95.5319 165.409 88.7245 162.462 82.4114L164.274 81.5654C167.322 88.0931 169.195 95.132 169.783 102.36L167.79 102.522Z" fill="#11172C"/>
</svg>
