<svg viewBox="0 0 200 200" fill="none" xmlns="http://www.w3.org/2000/svg">
<path d="M97.3732 139.977L92.0733 162.557H52C58.8098 145.367 63.9002 131.694 65.1574 129.819C66.4146 127.944 65.6813 124.349 65.1574 122.787C65.6813 112.108 66.8861 90.1244 67.5147 87.624C68.1433 85.1235 70.9196 80.8519 72.2292 79.0287C74.3245 68.3496 78.6723 46.0539 79.3009 42.3032C79.9295 38.5525 82.182 39.1776 83.2297 39.959L86.3727 43.866L88.0576 124.837H108.618L97.3732 139.977Z" fill="#D9946B"/>
<path d="M132.212 74.7734C128.69 72.4326 129.717 49.3822 131.749 45.3325C133.78 41.2828 137.004 39.0479 138.949 40.3406C140.895 41.6334 140.539 44.8099 139.903 50.2576C139.401 54.5638 136.36 77.5295 132.212 74.7734Z" fill="#D9946B"/>
<rect x="87.0176" y="39.4999" width="44.1053" height="83.9636" rx="2.5" fill="#EFFFFF" stroke="#0A1132" stroke-width="3"/>
<path d="M137.889 72.7269C139.667 75.4282 138.188 76.7168 136.365 78.3064C134.542 79.896 132.268 79.9753 131.286 78.4834C130.304 76.9915 130.986 74.4934 132.81 72.9038C134.633 71.3142 135.796 69.5462 137.889 72.7269Z" fill="#D9946B"/>
<path d="M140.256 65.9298C141.326 69.6799 139.104 70.8636 136.364 72.3237C133.624 73.7839 130.924 73.2886 130.333 71.2175C129.743 69.1463 131.485 66.2837 134.225 64.8236C136.966 63.3634 138.997 61.5143 140.256 65.9298Z" fill="#D9946B"/>
<path d="M141.682 57.5101C141.682 62.5158 138.628 62.513 136.354 65.2397C133.26 66.888 131.336 66.4775 130.481 63.4793C129.626 60.4811 131.44 56.7143 134.534 55.0659C137.627 53.4176 141.683 50.5464 141.682 57.5101Z" fill="#D9946B"/>
</svg>
