<svg viewBox="0 0 200 200" fill="none" xmlns="http://www.w3.org/2000/svg">
<rect x="58.5508" y="50" width="11.5508" height="11.5508" transform="rotate(90 58.5508 50)" fill="#6F7AA3"/>
<rect x="57.417" y="51.1343" width="9.28227" height="9.28227" transform="rotate(90 57.417 51.1343)" fill="#D5D8E4"/>
<rect x="56.1875" y="55" width="4.18741" height="4.18741" transform="rotate(90 56.1875 55)" fill="white"/>
<rect x="168.551" y="138" width="11.5508" height="11.5508" transform="rotate(90 168.551 138)" fill="#6F7AA3"/>
<rect x="167.417" y="139.134" width="9.28227" height="9.28227" transform="rotate(90 167.417 139.134)" fill="#D5D8E4"/>
<rect x="166.188" y="143" width="4.18741" height="4.18741" transform="rotate(90 166.188 143)" fill="white"/>
<rect x="31.5508" y="113" width="11.5508" height="11.5508" transform="rotate(90 31.5508 113)" fill="#6F7AA3"/>
<rect x="30.417" y="114.134" width="9.28227" height="9.28227" transform="rotate(90 30.417 114.134)" fill="#D5D8E4"/>
<rect x="29.1875" y="118" width="4.18741" height="4.18741" transform="rotate(90 29.1875 118)" fill="white"/>
<rect x="133.551" y="27" width="20.5508" height="20.5508" transform="rotate(90 133.551 27)" fill="#6F7AA3"/>
<rect x="131.532" y="29.0181" width="16.5147" height="16.5147" transform="rotate(90 131.532 29.0181)" fill="#D5D8E4"/>
<rect x="129.346" y="35.8958" width="7.45011" height="7.45011" transform="rotate(90 129.346 35.8958)" fill="white"/>
<rect x="163" y="76" width="16.5508" height="16.5508" fill="#D5D8E4"/>
<rect x="164.625" y="77.6252" width="13.3003" height="13.3003" fill="#D5D8E4"/>
<rect x="170.164" y="79.3862" width="6.00002" height="6.00002" fill="#D5D8E4"/>
<rect x="43" y="165" width="8" height="8" fill="#D5D8E4"/>
<rect x="43.7861" y="165.786" width="6.42884" height="6.42884" fill="#D5D8E4"/>
<rect x="46.4629" y="166.637" width="2.90018" height="2.90018" fill="#D5D8E4"/>
<rect x="75" y="36" width="5" height="5" fill="#D5D8E4"/>
<rect x="75.4912" y="36.491" width="4.01803" height="4.01803" fill="#D5D8E4"/>
<rect x="77.1641" y="37.0229" width="1.81261" height="1.81261" fill="#D5D8E4"/>
<path d="M129.118 88.5508L129.118 86.8769L127.444 86.8769L110.333 86.8769L108.659 86.8769L108.659 88.5508L108.659 105.652L108.659 107.326L110.333 107.326L127.444 107.326L129.118 107.326L129.118 105.652L129.118 88.5508ZM86.3406 88.5508L86.3406 86.8769L84.6667 86.8769L67.5556 86.8769L65.8816 86.8769L65.8816 88.5508L65.8816 105.652L65.8816 107.326L67.5556 107.326L84.6667 107.326L86.3406 107.326L86.3406 105.652L86.3406 88.5508ZM108.659 148.406L108.659 150.08L110.333 150.08L127.444 150.08L129.118 150.08L129.118 148.406L129.118 131.305L129.118 129.631L127.444 129.631L110.333 129.631L108.659 129.631L108.659 131.305L108.659 148.406ZM77.785 133.021L82.9928 133.021L82.9928 138.224L77.785 138.224L77.785 133.021ZM69.2295 129.674L69.2295 124.471L74.4372 124.471L74.4372 129.674L69.2295 129.674ZM65.8816 138.224L60.6739 138.224L60.6739 133.021L65.8816 133.021L65.8816 138.224ZM69.2295 141.572L74.4372 141.572L74.4372 146.775L69.2295 146.775L69.2295 141.572ZM86.3406 129.674L86.3406 124.471L91.5483 124.471L91.5483 129.674L86.3406 129.674ZM65.8816 150.123L65.8816 155.326L60.6739 155.326L60.6739 150.123L65.8816 150.123ZM86.3406 141.572L91.5483 141.572L91.5483 146.775L86.3406 146.775L86.3406 141.572ZM77.785 150.123L82.9928 150.123L82.9928 155.326L77.785 155.326L77.785 150.123ZM103.452 112.529L103.452 81.6739L134.326 81.6739L134.326 112.529L103.452 112.529ZM91.5483 112.529L60.6739 112.529L60.6739 81.6739L91.5483 81.6739L91.5483 112.529ZM103.452 155.283L103.452 124.428L134.326 124.428L134.326 155.283L103.452 155.283Z" fill="#D5D8E4" stroke="#2C3C78" stroke-width="3.34783"/>
<rect x="131.536" y="84.4637" width="24.5507" height="24.5507" transform="rotate(90 131.536 84.4637)" fill="#D5D8E4"/>
<rect x="128.188" y="87.8115" width="18.971" height="18.971" transform="rotate(90 128.188 87.8115)" fill="white"/>
<rect x="131.536" y="127.204" width="24.5507" height="24.5507" transform="rotate(90 131.536 127.204)" fill="#D5D8E4"/>
<rect x="128.188" y="130.551" width="18.971" height="18.971" transform="rotate(90 128.188 130.551)" fill="white"/>
<rect x="88.0146" y="84.4639" width="24.5507" height="24.5507" transform="rotate(90 88.0146 84.4639)" fill="#D5D8E4"/>
<rect x="84.667" y="87.8116" width="18.971" height="18.971" transform="rotate(90 84.667 87.8116)" fill="white"/>
<rect x="123" y="121" width="25" height="25" rx="2" fill="#C55C5C"/>
<rect x="123" y="121" width="25" height="25" rx="2" fill="url(#paint0_diamond_747_13800)"/>
<path fill-rule="evenodd" clip-rule="evenodd" d="M128.916 141.077C129.215 141.407 129.296 141.497 129.603 141.19L135.689 135.104L141.346 140.761C141.737 141.151 142.37 141.151 142.76 140.761C143.151 140.37 143.151 139.737 142.76 139.347L137.104 133.69L143.187 127.606C143.496 127.298 143.407 127.217 143.074 126.914C142.986 126.834 142.88 126.738 142.76 126.619C142.638 126.497 142.541 126.389 142.46 126.3C142.161 125.969 142.082 125.882 141.775 126.19L135.689 132.276L130.032 126.619C129.642 126.228 129.009 126.228 128.618 126.619C128.228 127.009 128.228 127.642 128.618 128.033L134.275 133.69L128.189 139.776C127.882 140.083 127.97 140.163 128.301 140.462C128.39 140.543 128.497 140.639 128.618 140.761C128.739 140.882 128.836 140.988 128.916 141.077Z" fill="white"/>
<defs>
<radialGradient id="paint0_diamond_747_13800" cx="0" cy="0" r="1" gradientUnits="userSpaceOnUse" gradientTransform="translate(154 132) rotate(160.145) scale(19.1377 44.7027)">
<stop stop-color="#C55C5C"/>
<stop offset="1" stop-color="white" stop-opacity="0"/>
</radialGradient>
</defs>
</svg>
