<svg viewBox="0 0 200 200" fill="none" xmlns="http://www.w3.org/2000/svg">
<path d="M108.704 65.7841H121.553L108.704 125.468L86.7373 128.868L108.704 65.7841Z" fill="#D5D8E4"/>
<path d="M121.967 65.8682L109.928 125.786L90.0527 128.868L121.967 65.8682Z" fill="#6F7AA3"/>
<path d="M73.4735 62.5524L70.1577 120.164L64.7695 116.848L73.4735 62.5524Z" fill="#D5D8E4"/>
<path d="M133.158 132.599L136.474 74.9867L141.862 78.3025L133.158 132.599Z" fill="#D5D8E4"/>
<path d="M93.817 67.8055L83.8165 62.5894C82.7174 62.0168 81.4927 61.7039 80.2433 61.6764C78.9939 61.6488 77.7556 61.9074 76.6304 62.4309C75.5052 62.9543 74.5253 63.7277 73.7716 64.6871C73.0178 65.6466 72.5117 66.7647 72.295 67.9493L64.226 111.995C63.9381 113.564 64.1707 115.181 64.891 116.617C65.6113 118.052 66.7827 119.232 68.2392 119.991L82.861 127.61C84.3607 128.392 86.0831 128.684 87.7699 128.443L107.244 125.666C108.93 125.426 110.653 125.718 112.153 126.5L122.154 131.712C123.253 132.285 124.478 132.598 125.728 132.625C126.978 132.652 128.216 132.393 129.342 131.87C130.467 131.346 131.447 130.572 132.2 129.612C132.954 128.652 133.46 127.533 133.676 126.348L141.744 82.3067C142.032 80.7376 141.8 79.121 141.081 77.6859C140.361 76.2508 139.191 75.0701 137.735 74.3109L123.113 66.6916C121.612 65.9094 119.889 65.6169 118.2 65.8579L98.7228 68.6342C97.0359 68.8746 95.3136 68.5823 93.8138 67.8011L93.817 67.8055Z" stroke="#2C3C78" stroke-width="2.48684" stroke-linecap="round" stroke-linejoin="round"/>
<path d="M96.1275 69.01L85.1708 128.819M120.799 65.4886L109.842 125.297" stroke="#2C3C78" stroke-width="2.48684" stroke-linejoin="round"/>
<mask id="path-7-inside-1_747_13801" fill="white">
<path d="M109.198 144.414C106.652 145.536 103.453 146.422 99.8277 147.008C96.2024 147.595 92.2405 147.868 88.2245 147.809C84.2085 147.749 80.2373 147.358 76.5941 146.663C72.9509 145.968 69.7255 144.987 67.1479 143.789C64.5702 142.591 62.7039 141.207 61.6818 139.734C60.6598 138.261 60.5073 136.736 61.2352 135.267C61.9631 133.799 63.5534 132.424 65.8928 131.24C68.2323 130.056 71.2631 129.092 74.7693 128.416L76.6315 129.697C73.6158 130.278 71.0089 131.107 68.9967 132.126C66.9845 133.144 65.6166 134.327 64.9905 135.59C64.3644 136.853 64.4956 138.165 65.3747 139.432C66.2538 140.698 67.8591 141.89 70.0762 142.92C72.2932 143.95 75.0675 144.794 78.201 145.392C81.3346 145.989 84.7502 146.326 88.2045 146.377C91.6587 146.428 95.0664 146.193 98.1846 145.689C101.303 145.184 104.055 144.422 106.244 143.457L109.198 144.414Z"/>
</mask>
<path d="M109.198 144.414C106.652 145.536 103.453 146.422 99.8277 147.008C96.2024 147.595 92.2405 147.868 88.2245 147.809C84.2085 147.749 80.2373 147.358 76.5941 146.663C72.9509 145.968 69.7255 144.987 67.1479 143.789C64.5702 142.591 62.7039 141.207 61.6818 139.734C60.6598 138.261 60.5073 136.736 61.2352 135.267C61.9631 133.799 63.5534 132.424 65.8928 131.24C68.2323 130.056 71.2631 129.092 74.7693 128.416L76.6315 129.697C73.6158 130.278 71.0089 131.107 68.9967 132.126C66.9845 133.144 65.6166 134.327 64.9905 135.59C64.3644 136.853 64.4956 138.165 65.3747 139.432C66.2538 140.698 67.8591 141.89 70.0762 142.92C72.2932 143.95 75.0675 144.794 78.201 145.392C81.3346 145.989 84.7502 146.326 88.2045 146.377C91.6587 146.428 95.0664 146.193 98.1846 145.689C101.303 145.184 104.055 144.422 106.244 143.457L109.198 144.414Z" stroke="#6F7AA3" stroke-opacity="0.2" stroke-width="5.50977" mask="url(#path-7-inside-1_747_13801)"/>
<mask id="path-8-inside-2_747_13801" fill="white">
<path d="M81.128 145.203C77.8455 144.688 74.8909 143.901 72.4949 142.903C70.0989 141.904 68.3264 140.721 67.316 139.447L70.6104 139.13C71.4679 140.212 72.972 141.215 75.0052 142.063C77.0385 142.91 79.5458 143.578 82.3313 144.015L81.128 145.203Z"/>
</mask>
<path d="M81.128 145.203C77.8455 144.688 74.8909 143.901 72.4949 142.903C70.0989 141.904 68.3264 140.721 67.316 139.447L70.6104 139.13C71.4679 140.212 72.972 141.215 75.0052 142.063C77.0385 142.91 79.5458 143.578 82.3313 144.015L81.128 145.203Z" stroke="#6F7AA3" stroke-opacity="0.4" stroke-width="5.50977" mask="url(#path-8-inside-2_747_13801)"/>
<mask id="path-9-inside-3_747_13801" fill="white">
<path d="M76.5965 141.419C78.8055 142.376 81.7399 143.058 84.9732 143.365C88.2065 143.672 91.5704 143.588 94.5759 143.125C97.5815 142.662 100.072 141.845 101.686 140.792C103.3 139.739 103.953 138.505 103.55 137.27L99.155 137.398C99.443 138.281 98.9763 139.163 97.8228 139.916C96.6692 140.669 94.8888 141.253 92.7403 141.584C90.5919 141.914 88.1873 141.974 85.876 141.755C83.5648 141.536 81.4672 141.049 79.8882 140.364L76.5965 141.419Z"/>
</mask>
<path d="M76.5965 141.419C78.8055 142.376 81.7399 143.058 84.9732 143.365C88.2065 143.672 91.5704 143.588 94.5759 143.125C97.5815 142.662 100.072 141.845 101.686 140.792C103.3 139.739 103.953 138.505 103.55 137.27L99.155 137.398C99.443 138.281 98.9763 139.163 97.8228 139.916C96.6692 140.669 94.8888 141.253 92.7403 141.584C90.5919 141.914 88.1873 141.974 85.876 141.755C83.5648 141.536 81.4672 141.049 79.8882 140.364L76.5965 141.419Z" stroke="#E2E4ED" stroke-width="5.50977" mask="url(#path-9-inside-3_747_13801)"/>
<circle cx="50.2633" cy="55.9208" r="11.1908" fill="white" stroke="#2C3C78" stroke-width="2.48684"/>
<circle cx="139.79" cy="47.6314" r="5.96842" fill="white" stroke="#2C3C78" stroke-width="1.32632"/>
<circle cx="116.579" cy="110.631" r="5.96842" fill="white" stroke="#2C3C78" stroke-width="1.32632"/>
<mask id="path-13-inside-4_747_13801" fill="white">
<path d="M112.75 112.841C112.262 111.995 112.067 111.012 112.197 110.044C112.326 109.076 112.773 108.178 113.466 107.491C114.159 106.803 115.061 106.365 116.03 106.244C116.999 106.122 117.98 106.325 118.822 106.821L118.202 107.873C117.593 107.515 116.883 107.368 116.182 107.456C115.48 107.543 114.828 107.861 114.326 108.358C113.824 108.856 113.501 109.506 113.408 110.206C113.314 110.906 113.455 111.618 113.808 112.23L112.75 112.841Z"/>
</mask>
<path d="M112.75 112.841C112.262 111.995 112.067 111.012 112.197 110.044C112.326 109.076 112.773 108.178 113.466 107.491C114.159 106.803 115.061 106.365 116.03 106.244C116.999 106.122 117.98 106.325 118.822 106.821L118.202 107.873C117.593 107.515 116.883 107.368 116.182 107.456C115.48 107.543 114.828 107.861 114.326 108.358C113.824 108.856 113.501 109.506 113.408 110.206C113.314 110.906 113.455 111.618 113.808 112.23L112.75 112.841Z" stroke="#2C3C78" stroke-opacity="0.3" stroke-width="2.65263" mask="url(#path-13-inside-4_747_13801)"/>
<circle cx="75.1316" cy="74.9866" r="5.96842" fill="white" stroke="#2C3C78" stroke-width="1.32632"/>
<mask id="path-15-inside-5_747_13801" fill="white">
<path d="M71.3029 77.1964C70.8147 76.3508 70.6201 75.3674 70.7496 74.3995C70.8791 73.4317 71.3254 72.534 72.0188 71.8465C72.7122 71.159 73.6136 70.7204 74.5825 70.5991C75.5514 70.4778 76.5332 70.6807 77.3746 71.1761L76.7548 72.2288C76.1459 71.8703 75.4354 71.7235 74.7342 71.8113C74.0331 71.899 73.3807 72.2164 72.8789 72.714C72.3771 73.2115 72.0542 73.8612 71.9605 74.5616C71.8667 75.262 72.0075 75.9737 72.3608 76.5856L71.3029 77.1964Z"/>
</mask>
<path d="M71.3029 77.1964C70.8147 76.3508 70.6201 75.3674 70.7496 74.3995C70.8791 73.4317 71.3254 72.534 72.0188 71.8465C72.7122 71.159 73.6136 70.7204 74.5825 70.5991C75.5514 70.4778 76.5332 70.6807 77.3746 71.1761L76.7548 72.2288C76.1459 71.8703 75.4354 71.7235 74.7342 71.8113C74.0331 71.899 73.3807 72.2164 72.8789 72.714C72.3771 73.2115 72.0542 73.8612 71.9605 74.5616C71.8667 75.262 72.0075 75.9737 72.3608 76.5856L71.3029 77.1964Z" stroke="#2C3C78" stroke-opacity="0.3" stroke-width="2.65263" mask="url(#path-15-inside-5_747_13801)"/>
<circle cx="43.6316" cy="133.842" r="5.96842" fill="white" stroke="#2C3C78" stroke-width="1.32632"/>
<mask id="path-17-inside-6_747_13801" fill="white">
<path d="M39.8029 136.051C39.3147 135.206 39.1201 134.222 39.2496 133.255C39.3791 132.287 39.8254 131.389 40.5188 130.702C41.2122 130.014 42.1136 129.575 43.0825 129.454C44.0514 129.333 45.0332 129.536 45.8746 130.031L45.2548 131.084C44.6459 130.725 43.9354 130.579 43.2342 130.666C42.5331 130.754 41.8807 131.071 41.3789 131.569C40.8771 132.067 40.5542 132.716 40.4605 133.417C40.3667 134.117 40.5075 134.829 40.8608 135.441L39.8029 136.051Z"/>
</mask>
<path d="M39.8029 136.051C39.3147 135.206 39.1201 134.222 39.2496 133.255C39.3791 132.287 39.8254 131.389 40.5188 130.702C41.2122 130.014 42.1136 129.575 43.0825 129.454C44.0514 129.333 45.0332 129.536 45.8746 130.031L45.2548 131.084C44.6459 130.725 43.9354 130.579 43.2342 130.666C42.5331 130.754 41.8807 131.071 41.3789 131.569C40.8771 132.067 40.5542 132.716 40.4605 133.417C40.3667 134.117 40.5075 134.829 40.8608 135.441L39.8029 136.051Z" stroke="#2C3C78" stroke-opacity="0.3" stroke-width="2.65263" mask="url(#path-17-inside-6_747_13801)"/>
<circle cx="126.526" cy="154.566" r="4.31053" fill="white" stroke="#2C3C78" stroke-width="1.32632"/>
<mask id="path-19-inside-7_747_13801" fill="white">
<path d="M123.655 156.223C123.288 155.588 123.143 154.851 123.24 154.125C123.337 153.399 123.672 152.726 124.192 152.21C124.712 151.695 125.388 151.366 126.114 151.275C126.841 151.184 127.577 151.336 128.208 151.707L127.744 152.497C127.287 152.228 126.754 152.118 126.228 152.184C125.702 152.25 125.213 152.488 124.837 152.861C124.46 153.234 124.218 153.721 124.148 154.246C124.078 154.772 124.183 155.306 124.448 155.765L123.655 156.223Z"/>
</mask>
<path d="M123.655 156.223C123.288 155.588 123.143 154.851 123.24 154.125C123.337 153.399 123.672 152.726 124.192 152.21C124.712 151.695 125.388 151.366 126.114 151.275C126.841 151.184 127.577 151.336 128.208 151.707L127.744 152.497C127.287 152.228 126.754 152.118 126.228 152.184C125.702 152.25 125.213 152.488 124.837 152.861C124.46 153.234 124.218 153.721 124.148 154.246C124.078 154.772 124.183 155.306 124.448 155.765L123.655 156.223Z" stroke="#2C3C78" stroke-opacity="0.3" stroke-width="2.65263" mask="url(#path-19-inside-7_747_13801)"/>
<circle cx="158.026" cy="102.342" r="4.31053" fill="white" stroke="#2C3C78" stroke-width="1.32632"/>
<mask id="path-21-inside-8_747_13801" fill="white">
<path d="M155.155 103.999C154.788 103.365 154.643 102.627 154.74 101.901C154.837 101.175 155.172 100.502 155.692 99.9864C156.212 99.4708 156.888 99.1418 157.614 99.0509C158.341 98.9599 159.077 99.1121 159.708 99.4836L159.244 100.273C158.787 100.004 158.254 99.8941 157.728 99.96C157.202 100.026 156.713 100.264 156.337 100.637C155.96 101.01 155.718 101.497 155.648 102.023C155.578 102.548 155.683 103.082 155.948 103.541L155.155 103.999Z"/>
</mask>
<path d="M155.155 103.999C154.788 103.365 154.643 102.627 154.74 101.901C154.837 101.175 155.172 100.502 155.692 99.9864C156.212 99.4708 156.888 99.1418 157.614 99.0509C158.341 98.9599 159.077 99.1121 159.708 99.4836L159.244 100.273C158.787 100.004 158.254 99.8941 157.728 99.96C157.202 100.026 156.713 100.264 156.337 100.637C155.96 101.01 155.718 101.497 155.648 102.023C155.578 102.548 155.683 103.082 155.948 103.541L155.155 103.999Z" stroke="#2C3C78" stroke-opacity="0.3" stroke-width="2.65263" mask="url(#path-21-inside-8_747_13801)"/>
</svg>
