<svg viewBox="0 0 200 200" fill="none" xmlns="http://www.w3.org/2000/svg">
<g clip-path="url(#clip0_747_13804)">
<path d="M132 115.855C132 141.35 103.5 165 103.5 165C103.5 165 75 141.35 75 115.855C75 99.919 87.7599 87 103.5 87C119.24 87 132 99.919 132 115.855Z" fill="#2C3C78" fill-opacity="0.2"/>
<path d="M130 114C130 114.876 129.953 115.749 129.862 116.619L129.5 123.5L126.301 133.948L117 150L104 164L97 158.668C97 158.668 127.553 138.766 129.862 116.619L130 114Z" fill="#2C3C78" fill-opacity="0.6"/>
<path d="M130.5 115C130.5 128.616 122.766 141.903 114.825 151.921C110.875 156.902 106.923 161.015 103.957 163.882C102.475 165.315 101.242 166.434 100.382 167.193C100.245 167.314 100.118 167.426 100 167.529C99.8824 167.426 99.7548 167.314 99.6177 167.193C98.7577 166.434 97.5245 165.315 96.0426 163.882C93.077 161.015 89.1245 156.902 85.1754 151.921C77.2335 141.903 69.5 128.616 69.5 115C69.5 98.1553 83.1553 84.5 100 84.5C116.845 84.5 130.5 98.1553 130.5 115Z" stroke="#2C3C78" stroke-width="3"/>
<circle cx="46" cy="30" r="13.5" fill="white" stroke="#2C3C78" stroke-width="3"/>
<circle cx="154" cy="45" r="7.2" fill="white" stroke="#2C3C78" stroke-width="1.6"/>
<circle cx="100" cy="116" r="13.5" fill="white" stroke="#2C3C78" stroke-width="3"/>
<mask id="path-7-inside-1_747_13804" fill="white">
<path d="M91.3396 121C90.2353 119.087 89.7953 116.863 90.0882 114.674C90.3812 112.484 91.3906 110.454 92.9589 108.899C94.5273 107.344 96.5663 106.352 98.7578 106.077C100.949 105.803 103.17 106.262 105.073 107.382L103.671 109.764C102.294 108.953 100.687 108.621 99.101 108.819C97.5151 109.018 96.0395 109.736 94.9045 110.861C93.7695 111.986 93.039 113.456 92.827 115.04C92.615 116.624 92.9335 118.234 93.7326 119.618L91.3396 121Z"/>
</mask>
<path d="M91.3396 121C90.2353 119.087 89.7953 116.863 90.0882 114.674C90.3812 112.484 91.3906 110.454 92.9589 108.899C94.5273 107.344 96.5663 106.352 98.7578 106.077C100.949 105.803 103.17 106.262 105.073 107.382L103.671 109.764C102.294 108.953 100.687 108.621 99.101 108.819C97.5151 109.018 96.0395 109.736 94.9045 110.861C93.7695 111.986 93.039 113.456 92.827 115.04C92.615 116.624 92.9335 118.234 93.7326 119.618L91.3396 121Z" stroke="#2C3C78" stroke-opacity="0.3" stroke-width="6" mask="url(#path-7-inside-1_747_13804)"/>
<circle cx="176" cy="102" r="7.2" fill="white" stroke="#2C3C78" stroke-width="1.6"/>
<mask id="path-9-inside-2_747_13804" fill="white">
<path d="M171.381 104.666C170.792 103.646 170.557 102.459 170.713 101.292C170.87 100.124 171.408 99.0412 172.245 98.2118C173.081 97.3824 174.168 96.8533 175.337 96.707C176.506 96.5607 177.69 96.8054 178.705 97.4031L177.958 98.673C177.223 98.2405 176.366 98.0634 175.52 98.1693C174.674 98.2752 173.887 98.6581 173.282 99.2583C172.677 99.8585 172.287 100.642 172.174 101.487C172.061 102.332 172.231 103.191 172.657 103.929L171.381 104.666Z"/>
</mask>
<path d="M171.381 104.666C170.792 103.646 170.557 102.459 170.713 101.292C170.87 100.124 171.408 99.0412 172.245 98.2118C173.081 97.3824 174.168 96.8533 175.337 96.707C176.506 96.5607 177.69 96.8054 178.705 97.4031L177.958 98.673C177.223 98.2405 176.366 98.0634 175.52 98.1693C174.674 98.2752 173.887 98.6581 173.282 99.2583C172.677 99.8585 172.287 100.642 172.174 101.487C172.061 102.332 172.231 103.191 172.657 103.929L171.381 104.666Z" stroke="#2C3C78" stroke-opacity="0.3" stroke-width="3.2" mask="url(#path-9-inside-2_747_13804)"/>
<circle cx="76" cy="53" r="7.2" fill="white" stroke="#2C3C78" stroke-width="1.6"/>
<mask id="path-11-inside-3_747_13804" fill="white">
<path d="M71.3809 55.6657C70.7919 54.6456 70.5572 53.4592 70.7135 52.2917C70.8697 51.1241 71.4081 50.0412 72.2445 49.2118C73.081 48.3824 74.1684 47.8533 75.3373 47.707C76.5061 47.5607 77.6904 47.8054 78.7055 48.4031L77.9578 49.673C77.2232 49.2405 76.3661 49.0634 75.5203 49.1693C74.6745 49.2752 73.8875 49.6581 73.2821 50.2583C72.6768 50.8585 72.2872 51.6422 72.1742 52.4871C72.0611 53.332 72.2309 54.1906 72.6572 54.9289L71.3809 55.6657Z"/>
</mask>
<path d="M71.3809 55.6657C70.7919 54.6456 70.5572 53.4592 70.7135 52.2917C70.8697 51.1241 71.4081 50.0412 72.2445 49.2118C73.081 48.3824 74.1684 47.8533 75.3373 47.707C76.5061 47.5607 77.6904 47.8054 78.7055 48.4031L77.9578 49.673C77.2232 49.2405 76.3661 49.0634 75.5203 49.1693C74.6745 49.2752 73.8875 49.6581 73.2821 50.2583C72.6768 50.8585 72.2872 51.6422 72.1742 52.4871C72.0611 53.332 72.2309 54.1906 72.6572 54.9289L71.3809 55.6657Z" stroke="#2C3C78" stroke-opacity="0.3" stroke-width="3.2" mask="url(#path-11-inside-3_747_13804)"/>
<circle cx="38" cy="124" r="7.2" fill="white" stroke="#2C3C78" stroke-width="1.6"/>
<mask id="path-13-inside-4_747_13804" fill="white">
<path d="M33.3809 126.666C32.7919 125.646 32.5572 124.459 32.7135 123.292C32.8697 122.124 33.4081 121.041 34.2445 120.212C35.081 119.382 36.1684 118.853 37.3373 118.707C38.5061 118.561 39.6904 118.805 40.7055 119.403L39.9578 120.673C39.2232 120.241 38.3661 120.063 37.5203 120.169C36.6745 120.275 35.8875 120.658 35.2821 121.258C34.6768 121.859 34.2872 122.642 34.1742 123.487C34.0611 124.332 34.2309 125.191 34.6572 125.929L33.3809 126.666Z"/>
</mask>
<path d="M33.3809 126.666C32.7919 125.646 32.5572 124.459 32.7135 123.292C32.8697 122.124 33.4081 121.041 34.2445 120.212C35.081 119.382 36.1684 118.853 37.3373 118.707C38.5061 118.561 39.6904 118.805 40.7055 119.403L39.9578 120.673C39.2232 120.241 38.3661 120.063 37.5203 120.169C36.6745 120.275 35.8875 120.658 35.2821 121.258C34.6768 121.859 34.2872 122.642 34.1742 123.487C34.0611 124.332 34.2309 125.191 34.6572 125.929L33.3809 126.666Z" stroke="#2C3C78" stroke-opacity="0.3" stroke-width="3.2" mask="url(#path-13-inside-4_747_13804)"/>
<circle cx="156" cy="178" r="5.2" fill="white" stroke="#2C3C78" stroke-width="1.6"/>
<mask id="path-15-inside-5_747_13804" fill="white">
<path d="M152.537 179.999C152.095 179.234 151.919 178.344 152.036 177.468C152.153 176.593 152.557 175.78 153.184 175.158C153.812 174.536 154.627 174.139 155.504 174.03C156.381 173.92 157.269 174.104 158.03 174.552L157.469 175.504C156.918 175.18 156.276 175.047 155.641 175.126C155.007 175.206 154.417 175.493 153.963 175.943C153.509 176.393 153.216 176.981 153.132 177.615C153.047 178.249 153.174 178.892 153.494 179.446L152.537 179.999Z"/>
</mask>
<path d="M152.537 179.999C152.095 179.234 151.919 178.344 152.036 177.468C152.153 176.593 152.557 175.78 153.184 175.158C153.812 174.536 154.627 174.139 155.504 174.03C156.381 173.92 157.269 174.104 158.03 174.552L157.469 175.504C156.918 175.18 156.276 175.047 155.641 175.126C155.007 175.206 154.417 175.493 153.963 175.943C153.509 176.393 153.216 176.981 153.132 177.615C153.047 178.249 153.174 178.892 153.494 179.446L152.537 179.999Z" stroke="#2C3C78" stroke-opacity="0.3" stroke-width="3.2" mask="url(#path-15-inside-5_747_13804)"/>
<rect x="109" y="134" width="25" height="25" rx="2" fill="#5CC592"/>
<rect x="109" y="134" width="25" height="25" rx="2" fill="url(#paint0_diamond_747_13804)"/>
<path d="M114.143 146.857L119.017 151.478L130.239 139.825" stroke="white" stroke-width="3"/>
</g>
<defs>
<radialGradient id="paint0_diamond_747_13804" cx="0" cy="0" r="1" gradientUnits="userSpaceOnUse" gradientTransform="translate(140 145) rotate(160.145) scale(19.1377 44.7027)">
<stop stop-color="#5CC592"/>
<stop offset="1" stop-color="white" stop-opacity="0"/>
</radialGradient>
<clipPath id="clip0_747_13804">
<rect width="200" height="200" fill="white"/>
</clipPath>
</defs>
</svg>
