<svg viewBox="0 0 200 200" fill="none" xmlns="http://www.w3.org/2000/svg">
<rect x="75.5" y="84.5" width="49" height="84" rx="4.5" fill="white" stroke="#2C3C78" stroke-width="3"/>
<path d="M125.539 115.773C125.539 141.062 123.766 167 123.766 167C123.766 167 75 167 75 115.773C75 79.7123 101.387 84.1757 115.343 84.1757C129.299 84.1757 125.539 99.966 125.539 115.773Z" fill="#2C3C78" fill-opacity="0.2"/>
<circle cx="100" cy="116" r="13.5" fill="white" stroke="#2C3C78" stroke-width="3"/>
<mask id="path-4-inside-1_747_13803" fill="white">
<path d="M91.3403 121C90.236 119.087 89.796 116.862 90.0889 114.673C90.3819 112.484 91.3913 110.454 92.9596 108.899C94.528 107.344 96.567 106.351 98.7585 106.077C100.95 105.803 103.171 106.262 105.074 107.382L103.672 109.763C102.295 108.952 100.688 108.62 99.1017 108.819C97.5158 109.017 96.0402 109.735 94.9052 110.861C93.7702 111.986 93.0397 113.456 92.8277 115.04C92.6157 116.624 92.9342 118.234 93.7333 119.618L91.3403 121Z"/>
</mask>
<path d="M91.3403 121L88.7423 122.5L90.2423 125.098L92.8403 123.598L91.3403 121ZM105.074 107.382L107.659 108.904L109.181 106.319L106.596 104.797L105.074 107.382ZM103.672 109.763L102.15 112.349L104.735 113.871L106.257 111.285L103.672 109.763ZM93.7333 119.618L95.2333 122.216L97.8314 120.716L96.3314 118.118L93.7333 119.618ZM93.9384 119.5C93.1654 118.161 92.8574 116.604 93.0624 115.071L87.1154 114.275C86.7346 117.121 87.3067 120.013 88.7423 122.5L93.9384 119.5ZM93.0624 115.071C93.2675 113.539 93.9741 112.117 95.0719 111.029L90.8473 106.768C88.8085 108.79 87.4963 111.43 87.1154 114.275L93.0624 115.071ZM95.0719 111.029C96.1698 109.94 97.5971 109.246 99.1311 109.054L98.3859 103.1C95.5369 103.457 92.8862 104.747 90.8473 106.768L95.0719 111.029ZM99.1311 109.054C100.665 108.862 102.22 109.183 103.552 109.967L106.596 104.797C104.122 103.34 101.235 102.744 98.3859 103.1L99.1311 109.054ZM102.489 105.86L101.087 108.241L106.257 111.285L107.659 108.904L102.489 105.86ZM105.194 107.178C103.246 106.031 100.973 105.561 98.7291 105.842L99.4744 111.796C100.403 111.679 101.344 111.874 102.15 112.349L105.194 107.178ZM98.7291 105.842C96.4857 106.123 94.3984 107.139 92.7929 108.73L97.0175 112.991C97.682 112.332 98.5459 111.912 99.4744 111.796L98.7291 105.842ZM92.7929 108.73C91.1874 110.322 90.1541 112.401 89.8542 114.642L95.8012 115.438C95.9253 114.51 96.353 113.65 97.0175 112.991L92.7929 108.73ZM89.8542 114.642C89.5544 116.883 90.0048 119.16 91.1353 121.118L96.3314 118.118C95.8635 117.308 95.6771 116.365 95.8012 115.438L89.8542 114.642ZM92.2333 117.02L89.8403 118.402L92.8403 123.598L95.2333 122.216L92.2333 117.02Z" fill="#2C3C78" fill-opacity="0.3" mask="url(#path-4-inside-1_747_13803)"/>
<circle cx="100" cy="116" r="13.5" fill="white" stroke="#2C3C78" stroke-width="3"/>
<path d="M100 96.5002C103.02 96.5002 105.999 97.2017 108.702 98.5494C111.405 99.8971 113.757 101.854 115.575 104.266C117.392 106.679 118.624 109.48 119.174 112.45C119.724 115.419 119.577 118.476 118.743 121.379" stroke="#6F7AA3" stroke-width="3"/>
<mask id="path-8-inside-2_747_13803" fill="white">
<path d="M91.3394 121C90.2351 119.087 89.795 116.863 90.088 114.674C90.3809 112.484 91.3903 110.454 92.9586 108.899C94.527 107.344 96.566 106.352 98.7576 106.077C100.949 105.803 103.17 106.262 105.073 107.382L103.671 109.764C102.294 108.953 100.687 108.621 99.1008 108.819C97.5148 109.018 96.0392 109.736 94.9042 110.861C93.7692 111.986 93.0387 113.456 92.8267 115.04C92.6148 116.624 92.9332 118.234 93.7324 119.618L91.3394 121Z"/>
</mask>
<path d="M91.3394 121L88.7413 122.5L90.2413 125.098L92.8394 123.598L91.3394 121ZM105.073 107.382L107.658 108.904L109.18 106.319L106.595 104.797L105.073 107.382ZM103.671 109.764L102.149 112.349L104.734 113.871L106.256 111.286L103.671 109.764ZM93.7324 119.618L95.2324 122.216L97.8304 120.716L96.3304 118.118L93.7324 119.618ZM93.9374 119.5C93.1644 118.161 92.8564 116.604 93.0615 115.071L87.1145 114.276C86.7337 117.122 87.3057 120.013 88.7413 122.5L93.9374 119.5ZM93.0615 115.071C93.2665 113.539 93.9731 112.118 95.0709 111.029L90.8464 106.769C88.8075 108.79 87.4953 111.43 87.1145 114.276L93.0615 115.071ZM95.0709 111.029C96.1688 109.941 97.5961 109.246 99.1302 109.054L98.3849 103.101C95.536 103.457 92.8852 104.747 90.8464 106.769L95.0709 111.029ZM99.1302 109.054C100.664 108.862 102.219 109.183 103.551 109.968L106.595 104.797C104.121 103.341 101.234 102.744 98.3849 103.101L99.1302 109.054ZM102.488 105.86L101.086 108.242L106.256 111.286L107.658 108.904L102.488 105.86ZM105.193 107.178C103.245 106.031 100.972 105.562 98.7281 105.842L99.4734 111.796C100.402 111.68 101.343 111.874 102.149 112.349L105.193 107.178ZM98.7281 105.842C96.4847 106.123 94.3974 107.139 92.7919 108.731L97.0165 112.991C97.681 112.332 98.5449 111.912 99.4734 111.796L98.7281 105.842ZM92.7919 108.731C91.1864 110.323 90.1531 112.401 89.8533 114.642L95.8002 115.438C95.9244 114.51 96.352 113.65 97.0165 112.991L92.7919 108.731ZM89.8533 114.642C89.5534 116.883 90.0038 119.16 91.1343 121.118L96.3304 118.118C95.8626 117.308 95.6761 116.365 95.8002 115.438L89.8533 114.642ZM92.2324 117.02L89.8394 118.402L92.8394 123.598L95.2324 122.216L92.2324 117.02Z" fill="#2C3C78" fill-opacity="0.3" mask="url(#path-8-inside-2_747_13803)"/>
<circle cx="46" cy="30" r="13.5" fill="white" stroke="#2C3C78" stroke-width="3"/>
<circle cx="154" cy="45" r="7.2" fill="white" stroke="#2C3C78" stroke-width="1.6"/>
<circle cx="176" cy="102" r="7.2" fill="white" stroke="#2C3C78" stroke-width="1.6"/>
<mask id="path-13-inside-3_747_13803" fill="white">
<path d="M171.381 104.666C170.792 103.646 170.557 102.459 170.713 101.292C170.87 100.124 171.408 99.0412 172.245 98.2118C173.081 97.3824 174.168 96.8533 175.337 96.707C176.506 96.5607 177.69 96.8054 178.705 97.4031L177.958 98.673C177.223 98.2405 176.366 98.0634 175.52 98.1693C174.674 98.2752 173.887 98.6581 173.282 99.2583C172.677 99.8585 172.287 100.642 172.174 101.487C172.061 102.332 172.231 103.191 172.657 103.929L171.381 104.666Z"/>
</mask>
<path d="M171.381 104.666C170.792 103.646 170.557 102.459 170.713 101.292C170.87 100.124 171.408 99.0412 172.245 98.2118C173.081 97.3824 174.168 96.8533 175.337 96.707C176.506 96.5607 177.69 96.8054 178.705 97.4031L177.958 98.673C177.223 98.2405 176.366 98.0634 175.52 98.1693C174.674 98.2752 173.887 98.6581 173.282 99.2583C172.677 99.8585 172.287 100.642 172.174 101.487C172.061 102.332 172.231 103.191 172.657 103.929L171.381 104.666Z" stroke="#2C3C78" stroke-opacity="0.3" stroke-width="3.2" mask="url(#path-13-inside-3_747_13803)"/>
<circle cx="76" cy="53" r="7.2" fill="white" stroke="#2C3C78" stroke-width="1.6"/>
<mask id="path-15-inside-4_747_13803" fill="white">
<path d="M71.3809 55.6657C70.7919 54.6456 70.5572 53.4592 70.7135 52.2917C70.8697 51.1241 71.4081 50.0412 72.2445 49.2118C73.081 48.3824 74.1684 47.8533 75.3373 47.707C76.5061 47.5607 77.6904 47.8054 78.7055 48.4031L77.9578 49.673C77.2232 49.2405 76.3661 49.0634 75.5203 49.1693C74.6745 49.2752 73.8875 49.6581 73.2821 50.2583C72.6768 50.8585 72.2872 51.6422 72.1742 52.4871C72.0611 53.332 72.2309 54.1906 72.6572 54.9289L71.3809 55.6657Z"/>
</mask>
<path d="M71.3809 55.6657C70.7919 54.6456 70.5572 53.4592 70.7135 52.2917C70.8697 51.1241 71.4081 50.0412 72.2445 49.2118C73.081 48.3824 74.1684 47.8533 75.3373 47.707C76.5061 47.5607 77.6904 47.8054 78.7055 48.4031L77.9578 49.673C77.2232 49.2405 76.3661 49.0634 75.5203 49.1693C74.6745 49.2752 73.8875 49.6581 73.2821 50.2583C72.6768 50.8585 72.2872 51.6422 72.1742 52.4871C72.0611 53.332 72.2309 54.1906 72.6572 54.9289L71.3809 55.6657Z" stroke="#2C3C78" stroke-opacity="0.3" stroke-width="3.2" mask="url(#path-15-inside-4_747_13803)"/>
<circle cx="38" cy="124" r="7.2" fill="white" stroke="#2C3C78" stroke-width="1.6"/>
<mask id="path-17-inside-5_747_13803" fill="white">
<path d="M33.3809 126.666C32.7919 125.646 32.5572 124.459 32.7135 123.292C32.8697 122.124 33.4081 121.041 34.2445 120.212C35.081 119.382 36.1684 118.853 37.3373 118.707C38.5061 118.561 39.6904 118.805 40.7055 119.403L39.9578 120.673C39.2232 120.241 38.3661 120.063 37.5203 120.169C36.6745 120.275 35.8875 120.658 35.2821 121.258C34.6768 121.859 34.2872 122.642 34.1742 123.487C34.0611 124.332 34.2309 125.191 34.6572 125.929L33.3809 126.666Z"/>
</mask>
<path d="M33.3809 126.666C32.7919 125.646 32.5572 124.459 32.7135 123.292C32.8697 122.124 33.4081 121.041 34.2445 120.212C35.081 119.382 36.1684 118.853 37.3373 118.707C38.5061 118.561 39.6904 118.805 40.7055 119.403L39.9578 120.673C39.2232 120.241 38.3661 120.063 37.5203 120.169C36.6745 120.275 35.8875 120.658 35.2821 121.258C34.6768 121.859 34.2872 122.642 34.1742 123.487C34.0611 124.332 34.2309 125.191 34.6572 125.929L33.3809 126.666Z" stroke="#2C3C78" stroke-opacity="0.3" stroke-width="3.2" mask="url(#path-17-inside-5_747_13803)"/>
<circle cx="156" cy="178" r="5.2" fill="white" stroke="#2C3C78" stroke-width="1.6"/>
<mask id="path-19-inside-6_747_13803" fill="white">
<path d="M152.537 179.999C152.095 179.234 151.919 178.344 152.036 177.468C152.153 176.593 152.557 175.78 153.184 175.158C153.812 174.536 154.627 174.139 155.504 174.03C156.381 173.92 157.269 174.104 158.03 174.552L157.469 175.504C156.918 175.18 156.276 175.047 155.641 175.126C155.007 175.206 154.417 175.493 153.963 175.943C153.509 176.393 153.216 176.981 153.132 177.615C153.047 178.249 153.174 178.892 153.494 179.446L152.537 179.999Z"/>
</mask>
<path d="M152.537 179.999C152.095 179.234 151.919 178.344 152.036 177.468C152.153 176.593 152.557 175.78 153.184 175.158C153.812 174.536 154.627 174.139 155.504 174.03C156.381 173.92 157.269 174.104 158.03 174.552L157.469 175.504C156.918 175.18 156.276 175.047 155.641 175.126C155.007 175.206 154.417 175.493 153.963 175.943C153.509 176.393 153.216 176.981 153.132 177.615C153.047 178.249 153.174 178.892 153.494 179.446L152.537 179.999Z" stroke="#2C3C78" stroke-opacity="0.3" stroke-width="3.2" mask="url(#path-19-inside-6_747_13803)"/>
<rect x="109" y="134" width="25" height="25" rx="2" fill="#5CC592"/>
<rect x="109" y="134" width="25" height="25" rx="2" fill="url(#paint0_diamond_747_13803)"/>
<path d="M114.143 146.857L119.017 151.478L130.239 139.825" stroke="white" stroke-width="3"/>
<defs>
<radialGradient id="paint0_diamond_747_13803" cx="0" cy="0" r="1" gradientUnits="userSpaceOnUse" gradientTransform="translate(140 145) rotate(160.145) scale(19.1377 44.7027)">
<stop stop-color="#5CC592"/>
<stop offset="1" stop-color="white" stop-opacity="0"/>
</radialGradient>
</defs>
</svg>
