<svg viewBox="0 0 28 29" fill="none" xmlns="http://www.w3.org/2000/svg">
  <path
    d="M22.9769 0.801636V3.33832H20.3846V0.799805L22.9769 0.801636ZM26.8461 0.799805C27.4808 0.799805 28 1.31904 28 1.95364V3.33828H25.5153V0.801636M10.1539 26.2613V18.6459H2.53847V26.2613H10.1539ZM11.5385 28.7998H1.15383C0.519238 28.7998 0 28.2806 0 27.646V17.2613C0 16.6266 0.519238 16.1074 1.15383 16.1074H11.5385C12.1731 16.1074 12.6923 16.6267 12.6923 17.2613V27.646C12.6924 28.2806 12.1731 28.7998 11.5385 28.7998ZM5.07698 22.4536C5.07698 22.117 5.2107 21.7941 5.44873 21.5561C5.68675 21.3181 6.00959 21.1843 6.34621 21.1843C6.68283 21.1843 7.00567 21.3181 7.24369 21.5561C7.48172 21.7941 7.61544 22.117 7.61544 22.4536C7.61544 22.7902 7.48172 23.113 7.24369 23.3511C7.00567 23.5891 6.68283 23.7228 6.34621 23.7228C6.00959 23.7228 5.68675 23.5891 5.44873 23.3511C5.2107 23.113 5.07698 22.7902 5.07698 22.4536ZM25.4615 26.2613V18.6459H17.8461V26.2613H25.4615ZM26.8461 28.7998H16.4615C15.8268 28.7998 15.3076 28.2806 15.3076 27.646V17.2613C15.3076 16.6266 15.8269 16.1074 16.4615 16.1074H26.8461C27.4808 16.1074 28 16.6267 28 17.2613V27.646C28 28.2806 27.4808 28.7998 26.8461 28.7998ZM20.3846 22.4536C20.3846 22.117 20.5183 21.7941 20.7563 21.5561C20.9943 21.3181 21.3172 21.1843 21.6538 21.1843C21.9904 21.1843 22.3132 21.3181 22.5513 21.5561C22.7893 21.7941 22.923 22.117 22.923 22.4536C22.923 22.7902 22.7893 23.113 22.5513 23.3511C22.3132 23.5891 21.9904 23.7228 21.6538 23.7228C21.3172 23.7228 20.9943 23.5891 20.7563 23.3511C20.5183 23.113 20.3846 22.7902 20.3846 22.4536ZM10.1539 10.9537V3.33828H2.53847V10.9537H10.1539ZM11.5385 13.4922H1.15383C0.519238 13.4922 0 12.973 0 12.3384V1.95368C0 1.31904 0.519238 0.799843 1.15383 0.799843H11.5385C12.1731 0.799843 12.6923 1.31908 12.6923 1.95368V12.3384C12.6924 12.973 12.1731 13.4922 11.5385 13.4922ZM5.07698 7.14603C5.07698 6.80941 5.2107 6.48658 5.44873 6.24855C5.68675 6.01052 6.00959 5.87679 6.34621 5.87679C6.68283 5.87679 7.00567 6.01052 7.24369 6.24855C7.48172 6.48658 7.61544 6.80941 7.61544 7.14603C7.61544 7.48266 7.48172 7.80549 7.24369 8.04352C7.00567 8.28155 6.68283 8.41527 6.34621 8.41527C6.00959 8.41527 5.68675 8.28155 5.44873 8.04352C5.2107 7.80549 5.07698 7.48266 5.07698 7.14603ZM26.8461 13.4922H25.4308V8.41527H22.8924V13.4922H16.4615C15.8268 13.4922 15.3076 12.973 15.3076 12.3384V1.95368C15.3076 1.31904 15.8269 0.799843 16.4615 0.799843H17.8461V3.33832V5.87679V8.41527H20.3846V5.87679H28V12.3384C28 12.973 27.4808 13.4922 26.8461 13.4922Z"
    fill="currentColor"
  />
</svg>