<svg width="20" height="20" viewBox="0 0 20 20" fill="none" xmlns="http://www.w3.org/2000/svg">
  <path fill-rule="evenodd" clip-rule="evenodd" d="M2.5 10C2.5 9.65482 2.77982 9.375 3.125 9.375H16.875C17.2202 9.375 17.5 9.65482 17.5 10C17.5 10.3452 17.2202 10.625 16.875 10.625H3.125C2.77982 10.625 2.5 10.3452 2.5 10Z" fill="currentColor"/>
  <path fill-rule="evenodd" clip-rule="evenodd" d="M9.19194 3.93306C9.43602 4.17714 9.43602 4.57286 9.19194 4.81694L4.00888 10L9.19194 15.1831C9.43602 15.4271 9.43602 15.8229 9.19194 16.0669C8.94786 16.311 8.55214 16.311 8.30806 16.0669L2.68306 10.4419C2.43898 10.1979 2.43898 9.80214 2.68306 9.55806L8.30806 3.93306C8.55214 3.68898 8.94786 3.68898 9.19194 3.93306Z" fill="currentColor"/>
</svg>