<svg viewBox="0 0 40 40" fill="none" xmlns="http://www.w3.org/2000/svg">
<path d="M22.0775 40H16.0443V34H22.0775V40ZM22.0775 30H16.0443V29.986C16.0443 26.686 16.0443 23.836 17.3957 21.84C18.4471 20.5148 19.7553 19.413 21.2429 18.6C21.9146 18.172 22.5481 17.766 23.081 17.344C24.2242 16.4641 25.0859 15.2729 25.5614 13.9153C26.0369 12.5576 26.1058 11.0919 25.7598 9.69604C25.2171 8.40595 24.2429 7.34194 23.0021 6.68409C21.7612 6.02624 20.33 5.81495 18.9505 6.08599C17.571 6.35703 16.328 7.09374 15.432 8.17145C14.5359 9.24915 14.0418 10.6017 14.0332 12H8C8 8.81744 9.27128 5.7652 11.5342 3.51477C13.7971 1.26433 16.8662 5.45385e-05 20.0664 5.45385e-05C22.3388 -0.00673501 24.5676 0.620531 26.4994 1.81057C28.4312 3.0006 29.9886 4.70569 30.9946 6.73205C31.8982 8.7967 32.2012 11.0721 31.8692 13.2995C31.5371 15.5268 30.5833 17.6169 29.1162 19.332C28.2052 20.336 27.1856 21.232 26.0715 22.006C25.0973 22.6743 24.2086 23.4581 23.4249 24.34C22.3172 26.009 21.8399 28.0143 22.0775 30V30Z" fill="#94A3D8"/>
</svg>
